<?xml version="1.0" encoding="UTF-8" standalone="no"?>
<!DOCTYPE svg PUBLIC "-//W3C//DTD SVG 1.1//EN" "http://www.w3.org/Graphics/SVG/1.1/DTD/svg11.dtd">
<svg version="1.1" xmlns="http://www.w3.org/2000/svg" xmlns:xlink="http://www.w3.org/1999/xlink" preserveAspectRatio="xMidYMid meet" viewBox="0 0 640 640" width="640" height="640"><defs><path d="M640 584.37L432.59 584.37L432.59 596.09L128.24 596.09L128.24 584.37L0 584.37L0 607.19L640 607.19L640 584.37Z" id="a1j6IoLk93"></path><path d="M129.13 394.31L432.97 394.31L425.79 584.91L432.09 584.91L432.09 595.78L129.13 595.78L129.13 584.57L136.07 584.57L129.13 394.31Z" id="b9y0xJi8"></path><path d="M289.42 487.1C289.76 487.4 289.83 487.47 290.25 487.84C290.84 488.35 291.36 488.94 291.82 489.58C292.22 490.15 292.52 490.57 292.86 491.06C293.5 491.96 294 492.95 294.35 494C294.51 494.48 294.42 494.23 294.57 494.69C294.95 495.84 295.14 497.04 295.14 498.24C295.14 498.9 295.14 499.18 295.14 499.87C295.14 500.97 295.02 502.08 294.78 503.15C294.71 503.45 294.9 502.62 294.84 502.89C294.58 504.05 294.18 505.18 293.65 506.24C293.55 506.45 293.82 505.89 293.67 506.2C293.32 506.91 292.88 507.57 292.37 508.17C292.12 508.46 292.3 508.24 292.1 508.49C291.46 509.23 290.74 509.91 289.95 510.5C289.59 510.76 289.67 510.7 289.31 510.97C288.55 511.54 287.73 512.01 286.86 512.39C286.49 512.55 287.12 512.28 286.85 512.39C285.62 512.93 284.3 513.24 282.96 513.31C282.58 513.33 283.43 513.28 283.05 513.31C281.72 513.37 280.39 513.34 279.07 513.19C278.83 513.17 279.67 513.26 279.33 513.22C278.36 513.12 277.41 512.92 276.47 512.64C276.06 512.52 276.31 512.6 275.92 512.48C274.92 512.18 273.95 511.79 273.02 511.33C272.61 511.12 273.19 511.41 272.89 511.26C271.62 510.63 270.46 509.78 269.47 508.77C269.25 508.53 270.09 509.4 269.87 509.17C268.86 508.13 267.97 506.98 267.22 505.74C267.1 505.53 267.68 506.49 267.51 506.22C266.9 505.2 266.4 504.13 266.01 503.02C265.88 502.65 266.12 503.33 266 502.99C265.59 501.79 265.37 500.54 265.37 499.28C265.37 498.87 265.37 499.4 265.37 498.96C265.37 497.82 265.5 496.69 265.74 495.58C265.83 495.16 265.83 495.17 265.94 494.65C266.11 493.86 266.42 493.09 266.83 492.39C267.14 491.89 267.23 491.74 267.48 491.31C268.05 490.35 268.74 489.46 269.52 488.65C269.81 488.36 269.78 488.39 270.14 488.02C270.69 487.45 271.3 486.95 271.96 486.51C272.37 486.25 272.65 486.06 273.07 485.78C273.69 485.37 274.35 485.06 275.05 484.83C275.62 484.65 275.7 484.62 276.13 484.48C277.28 484.11 278.49 483.92 279.71 483.92C280.1 483.92 280.07 483.92 280.62 483.92C281.3 483.92 281.98 483.97 282.65 484.07C283.12 484.13 283.25 484.15 283.65 484.21C284.54 484.34 285.4 484.61 286.2 485.01C286.59 485.21 286.34 485.08 286.67 485.25C287.66 485.74 288.59 486.36 289.42 487.1Z" id="a108uXBCtO"></path><path d="M87.7 543.74L84.32 542.99L116.46 517.99L130.9 465.17L128.22 393.75L228.09 393.56L203.98 303.75L178.04 265.26L112.24 284.17L43.27 549.79L65.76 573.63L107.73 581.39L120.69 584.37L135.33 583.98L133.44 540.24C126.62 536.81 122.35 534.67 120.64 533.81C117.52 532.24 113.86 532.15 110.66 533.57C107.6 534.92 99.95 538.31 87.7 543.74Z" id="a4MpscUiw"></path><path d="M128.14 393.01L146.04 393.01L113.42 295.41L128.14 393.01Z" id="cUTXNiHax"></path><path d="M229.57 331.59L269.85 299.12L269.85 393.77L228.92 393.77L194.43 262.57L200.66 260.97L229.57 331.59Z" id="b5KgnNOlS"></path><path d="M230.82 315.24L269.85 289.26L269.85 298.41L229.8 330.73L201.15 260.56L212.35 258.87L230.82 315.24Z" id="a63myRc5lY"></path><path d="M231.14 314.26L269.6 288.26L215.95 233.05L209.41 248.9L231.14 314.26Z" id="bsfDhhGe"></path><path d="M338.37 224.65L287.57 288.05L323.37 323.65L346.77 246.45L338.37 224.65Z" id="c1dLRM77KZ"></path><path d="M286.8 314.14L287.38 289.25L323.34 324.56L286.8 314.14Z" id="a2MIIlSPvs"></path><path d="M286.8 314.26L286.98 393.32L333.43 393.32L357.18 302.77L361.79 261.67L351.68 258.87L329.36 306.9L323.34 324.56L286.8 314.26Z" id="f2fJMkDdBh"></path><path d="M286.38 393.32L286.8 288.27L269.85 288.27L270.4 393.32L286.38 393.32Z" id="d328H9jshx"></path><path d="M323.55 215.3L328.54 221.62L285.74 280.79L270.55 280.79L225.97 229.5L228.17 210.48L277.8 245.13L323.55 215.3Z" id="b1IfVQyxGY"></path><path d="M225.43 168.84L228.49 176.58L230.94 182.37L232.49 187.26L233.08 196.22L240.98 201.79L241.63 195.83L243.28 191.73L246.09 187.82L249.49 185.57L275.83 186.55L275.83 194.51L254.55 193.54L250.33 194.96L248.13 197.67L245.94 201.07L245.18 205.2L272.94 222.71L281.29 222.71L311.95 202.53C310.97 200.01 310.43 198.61 310.32 198.33C309.76 197.18 309.41 196.46 309.28 196.17C309.07 195.74 308.72 195.39 308.28 195.17C307.88 194.98 307.71 194.89 307.4 194.74C306.66 194.38 305.85 194.19 305.03 194.2C301.87 194.25 293.95 194.35 281.29 194.51C281.29 193.98 281.29 191.33 281.29 186.55L306.44 186.28L310.15 187.26L312.93 190.37L315.06 193.37L316.59 200.75L323.49 195.16L327.93 168.02L337.8 158.81L334.45 198.12L332.37 205.69L323.49 214.57L277.87 244.35L224.48 206.74L218.39 159.8L224.64 166.28L225.43 168.84Z" id="a49lcdkuco"></path><path d="M244.24 128.29L249.27 128.29L255.41 129.12L261.21 130.19L266.43 132.03L270.43 134.32L271.42 136.59C280.4 136.59 285.38 136.59 286.38 136.59C286.94 135.76 287.28 135.24 287.42 135.03C287.74 134.57 288.15 134.17 288.63 133.87C289.32 133.45 288.49 133.96 288.63 133.87C290.92 132.46 293.33 131.26 295.84 130.28C296.07 130.19 296.64 129.97 297.56 129.61C298.02 129.48 301.71 128.42 302.17 128.29C303.29 128.06 304 127.92 304.28 127.87C306.28 127.46 308.32 127.27 310.36 127.3C314.67 127.35 325.42 127.49 342.63 127.7C342.63 128.23 342.63 130.91 342.63 135.72C340.18 135.72 338.81 135.72 338.54 135.72C338.54 137.09 338.54 137.95 338.54 138.3C338.54 139.08 338.49 139.86 338.37 140.63C338.34 140.9 338.24 141.55 338.09 142.6C338.02 143.02 337.42 146.42 337.35 146.84C337.13 147.78 337 148.36 336.94 148.6C336.57 150.24 335.86 151.79 334.87 153.16C334.71 153.39 334.3 153.96 333.64 154.87C332.68 155.91 332.08 156.56 331.84 156.82C330.82 157.93 329.69 158.94 328.46 159.83C327.78 160.32 327.66 160.41 327 160.89C325.7 161.83 324.28 162.6 322.79 163.17C321.93 163.5 322.27 163.37 321.58 163.64C319.55 164.41 317.43 164.89 315.27 165.05C314.78 165.09 313.57 165.18 311.63 165.33C309.6 165.33 308.34 165.33 307.83 165.33C305.94 165.33 304.06 165.16 302.2 164.81C301.72 164.72 302.76 164.92 302.2 164.81C300.61 164.52 299.09 163.94 297.7 163.11C297.34 162.89 297.76 163.14 297.25 162.84C296.35 162.3 295.48 161.68 294.67 161.01C294.23 160.64 294.91 161.21 294.67 161.01C293.19 159.78 291.81 158.44 290.53 157.01C290.42 156.89 290.15 156.59 289.73 156.12C289.09 155.22 288.69 154.66 288.53 154.44C287.39 152.84 286.68 150.98 286.47 149.03C286.37 148.14 286.13 145.91 285.74 142.34C285.74 142.15 285.74 141.19 285.74 139.47C277.47 139.47 272.88 139.47 271.96 139.47C271.96 140.21 271.96 140.67 271.96 140.86C271.96 141.44 271.91 142.03 271.82 142.61C271.54 144.37 271.26 146.18 271.08 147.3C270.65 150.01 269.8 152.64 268.55 155.09C268.51 155.17 268.4 155.39 268.22 155.73C267.58 156.72 267.18 157.33 267.03 157.58C265.63 159.74 263.74 161.55 261.52 162.84C261 163.15 262.06 162.53 261.35 162.94C259.74 163.88 257.97 164.53 256.13 164.84C255.11 165.02 254.61 165.1 253.53 165.29C251.88 165.57 250.21 165.71 248.54 165.71C247.2 165.71 245.92 165.71 244.64 165.71C242.77 165.71 240.9 165.52 239.07 165.13C237.93 164.89 237.44 164.79 236.35 164.55C234.39 164.14 232.55 163.28 230.97 162.05C230.23 161.48 230 161.29 229.15 160.64C227.89 159.66 226.78 158.51 225.84 157.22C225.4 156.62 225.53 156.79 225.09 156.19C224.15 154.89 223.29 153.52 222.54 152.09C222.15 151.34 222.19 151.41 221.82 150.71C220.99 149.14 220.46 147.43 220.24 145.66C220.18 145.16 220.03 143.92 219.78 141.93C219.78 141.57 219.75 139.79 219.71 136.59L215.39 136.59L215.55 128.29L216.55 128.29L244.24 128.29Z" id="bcnbKjEJj"></path><path d="M215.86 126.58C216.18 126.58 216.1 126.58 216.64 126.58C217.1 126.58 217.46 126.21 217.46 125.76C217.46 125.32 217.46 124.23 217.46 122.49C217.46 121.62 217.46 114.69 217.46 113.82C217.42 110.79 217.39 108.9 217.38 108.14C217.37 107.37 217.54 106.6 217.88 105.9C218.19 105.25 217.77 106.12 217.88 105.9C218.93 103.72 220.25 101.68 221.81 99.83C222.4 99.12 223.14 98.24 224.06 97.15C224.53 96.59 224.91 95.97 225.19 95.3C225.57 94.36 226.24 92.74 226.61 91.85C226.94 91.05 227.11 90.19 227.11 89.32C227.11 87.86 227.11 84.12 227.11 82.5C227.11 82.23 227.32 82.02 227.58 82.02C227.96 82.02 228.83 82.02 229.26 82.02C229.38 82.02 229.48 81.92 229.48 81.8C229.49 80.79 229.52 78.68 229.53 77.84C229.53 77.11 229.68 76.38 229.95 75.7C230.43 74.53 229.87 75.91 229.95 75.7C231.53 71.81 233.46 68.07 235.72 64.54C235.9 64.26 236.34 63.58 237.03 62.49C237.28 62.08 238.53 60.02 240.77 56.32L245.7 50.06C249.02 46.77 250.86 44.95 251.23 44.58C252.7 43.39 253.62 42.65 253.99 42.36C255.53 41.11 257.18 40 258.91 39.03C259.24 38.85 260.08 38.38 261.42 37.63C263.32 36.73 264.51 36.17 264.99 35.94C264.99 35.94 266.65 35.27 266.65 35.27C268.12 34.76 271.46 33.63 272.87 33.14C273.64 32.88 274.43 32.7 275.24 32.61C276.36 32.48 279.16 32.17 283.64 31.66C284.22 31.65 287.12 31.6 292.35 31.51L301.62 32.03L310.97 33.08L317.55 34.01L324.16 35.16C327.76 35.61 329.76 35.86 330.16 35.91C331.98 36.39 333.12 36.7 333.57 36.82C335.18 37.25 336.75 37.79 338.27 38.45C338.68 38.63 339.7 39.07 341.32 39.77C343.44 40.56 344.76 41.05 345.28 41.25C346.09 41.55 346.97 41.61 347.81 41.44C349 41.19 351.6 40.65 352.88 40.39C353.45 40.27 354.01 40.1 354.55 39.88C355.32 39.56 356.68 39 357.42 38.69C357.6 38.62 357.53 38.35 357.34 38.36C356.94 38.4 355.95 38.47 354.37 38.6C352.46 38.7 351.27 38.76 350.79 38.79C350.23 38.82 349.66 38.79 349.1 38.72C348.47 38.63 347.21 38.45 346.53 38.36C346.16 38.3 345.8 38.21 345.45 38.07C345.27 37.99 345.34 38.02 345.19 37.96C344.77 37.79 344.43 37.47 344.23 37.07C344.13 36.88 344.29 37.2 344.23 37.07C343.92 36.44 343.86 35.72 344.08 35.06C344.17 34.77 344.12 34.92 344.22 34.63C344.43 33.97 344.84 33.4 345.4 33.01C345.77 32.74 346.12 32.49 346.51 32.21C347.02 31.85 347.57 31.57 348.16 31.38C349.07 31.09 350.97 30.49 351.89 30.19C352.43 30.02 352.92 29.71 353.3 29.29C353.52 29.04 353.46 29.11 353.64 28.91C353.94 28.58 353.71 28.05 353.26 28.05C350.14 28.05 341.72 28.05 338.54 28.05C337.98 28.05 337.45 27.82 337.06 27.43C336.9 27.27 337.07 27.44 336.92 27.29C336.5 26.87 336.27 26.29 336.29 25.69C336.32 24.43 336.39 21.66 336.42 20.42C336.43 19.74 336.19 19.08 335.74 18.57C335.1 17.85 333.75 16.34 333.08 15.58C332.82 15.29 332.35 15.37 332.2 15.73C332.09 16.01 332.12 15.93 332.01 16.18C332.01 16.18 331.12 17.98 331.12 17.98C330.84 18.45 330.43 19.15 330.14 19.66C330.14 19.66 329.29 20.94 329.29 20.94C329.02 21.31 328.68 21.77 328.41 22.13C328.09 22.56 327.58 22.79 327.05 22.73C326.56 22.69 325.94 22.63 325.45 22.58C324.9 22.53 324.39 22.26 324.04 21.83C323.79 21.53 323.59 21.27 323.34 20.97C322.99 20.55 322.8 20.03 322.78 19.49C322.77 19.24 322.74 18.6 322.7 17.58C322.73 17.12 322.74 16.83 322.75 16.71C322.79 16.07 323.15 15.5 323.71 15.19C324.15 14.95 324.65 14.68 325.11 14.42C325.6 14.15 325.91 13.64 325.91 13.08C325.91 13.04 325.91 12.93 325.91 12.76C325.91 12.76 325.91 12.76 325.91 12.76C325.98 12.52 325.78 12.29 325.53 12.32C325.39 12.34 325.06 12.38 324.52 12.45C324.35 12.47 323.49 12.57 321.94 12.76C320.32 13.5 319.42 13.91 319.24 13.99C318.24 14.64 317.62 15.05 317.37 15.21C316.77 15.6 316.11 15.88 315.42 16.03C314.91 16.15 314.89 16.15 314.49 16.24C313.56 16.44 312.63 15.91 312.34 15.01C312.26 14.77 312.44 15.32 312.34 15.01C312.08 14.21 311.95 13.38 311.95 12.55C311.95 12.06 311.95 11.47 311.95 10.89C311.95 10.89 311.95 9.33 311.95 9.33C311.95 8.82 311.95 7.88 311.95 7.32C311.95 6.96 311.91 6.6 311.84 6.24C311.8 6.07 311.86 6.35 311.84 6.24C311.74 5.76 311.3 5.42 310.81 5.43C310.58 5.44 310.76 5.43 310.53 5.44C309.96 5.46 309.42 5.66 308.98 6.03C308.59 6.35 307.99 6.85 307.57 7.2C307.22 7.49 306.91 7.82 306.64 8.18C306.37 8.53 306.19 8.77 305.97 9.06C305.54 9.64 305.22 10.29 305.03 10.99C304.8 11.87 304.5 13.03 304.29 13.81C304.05 14.73 303.2 15.37 302.24 15.35C301.8 15.35 302.21 15.35 301.8 15.35C300.79 15.33 299.95 14.55 299.86 13.54C299.81 13.02 299.68 11.7 299.48 9.59C299.11 7.5 298.88 6.19 298.78 5.66C298.68 5.07 298.41 4.53 298.01 4.09C297.63 3.69 297.29 3.32 296.96 2.96C296.58 2.55 295.9 2.66 295.68 3.18C295.56 3.46 295.26 4.15 294.78 5.27C294.64 6.28 294.55 6.92 294.51 7.17C294.4 7.98 293.99 8.72 293.37 9.25C293.12 9.46 293.27 9.33 293.01 9.56C292.43 10.05 292.08 10.75 292.03 11.51C292 12.01 291.96 12.72 291.92 13.32C291.89 13.75 291.72 14.16 291.42 14.48C291.15 14.78 290.73 15.23 290.45 15.54C290.24 15.77 289.88 15.8 289.65 15.6C289.46 15.44 289.72 15.66 289.64 15.59C289.04 15.1 288.67 14.4 288.58 13.64C288.51 12.97 288.4 11.94 288.32 11.22C288.26 10.64 288.02 10.09 287.63 9.66C287.24 9.23 286.67 8.58 286.28 8.15C285.9 7.72 285.41 7.41 284.87 7.24C284.28 7.05 283.36 6.77 282.77 6.58C282.77 6.58 281.04 6.15 281.04 6.15C280.39 6.02 279.08 5.77 278.37 5.64C278.24 5.61 278.16 5.79 278.27 5.87C278.76 6.22 279.66 6.87 280.12 7.2C280.51 7.48 280.79 7.88 280.94 8.34C281.06 8.7 281.25 9.31 281.39 9.73C281.48 10 281.5 10.3 281.47 10.58C281.38 11.24 281.2 12.65 281.12 13.27C281.07 13.67 280.86 14.04 280.54 14.28C280.14 14.58 279.29 15.23 278.85 15.57C278.68 15.7 278.43 15.68 278.29 15.51C277.8 14.95 276.76 13.76 276.31 13.25C276.01 12.9 275.78 12.51 275.62 12.08C275.36 11.36 274.87 10.03 274.62 9.35C274.41 8.77 274.28 8.16 274.24 7.55C274.18 6.61 274.04 4.45 273.98 3.44C273.96 3.07 273.82 2.72 273.59 2.43C273.32 2.09 272.75 1.39 272.45 1.01C272.33 0.86 272.11 0.85 271.97 0.99C271.49 1.47 270.42 2.56 269.97 3.02C269.72 3.28 269.52 3.57 269.38 3.9C269.12 4.48 268.6 5.63 268.36 6.18C268.17 6.6 268.09 7.05 268.13 7.51C268.2 8.5 268.38 10.77 268.45 11.75C268.49 12.22 268.45 12.68 268.34 13.13C268.19 13.71 267.94 14.73 267.8 15.3C267.73 15.6 267.34 15.7 267.13 15.47C266.88 15.2 266.68 14.97 266.44 14.71C266.09 14.32 265.77 13.91 265.48 13.46C265.16 12.96 264.58 12.05 264.24 11.53C263.99 11.14 263.68 10.78 263.32 10.47C262.83 10.03 262.04 9.34 261.59 8.94C261.08 8.5 260.51 8.14 259.89 7.89C259.19 7.6 258.27 7.22 257.63 6.96C257.07 6.72 256.45 7.16 256.47 7.77C256.49 8.21 256.5 8.53 256.52 9.05C256.54 9.65 256.74 10.23 257.08 10.72C257.6 11.46 258.77 13.15 259.33 13.95C259.54 14.25 259.65 14.62 259.63 14.99C259.6 15.83 259.52 17.98 259.48 18.86C259.48 19 259.33 19.07 259.22 19C258.33 18.43 256.62 17.31 255.9 16.85C255.18 16.38 254.55 15.77 254.05 15.06C253.68 14.54 253.25 13.91 252.86 13.36C252.44 12.76 252.07 12.11 251.77 11.44C251.24 10.24 249.9 7.21 249.32 5.91C249.19 5.62 248.99 5.37 248.74 5.18C248.43 4.94 247.95 4.58 247.66 4.36C247.46 4.21 247.19 4.35 247.19 4.59C247.18 6.38 247.15 10.86 247.12 18.02C247.18 19.09 247.21 19.75 247.23 20.02C247.25 20.45 246.85 20.78 246.43 20.69C245.47 20.47 243.66 20.05 242.76 19.85C242.1 19.7 241.6 19.13 241.55 18.45C241.39 16.61 240.99 11.86 240.83 9.93C240.8 9.61 240.47 9.41 240.18 9.54C239.91 9.66 240.04 9.6 239.86 9.68C239.18 9.99 238.57 10.43 238.07 10.98C237.82 11.25 237.9 11.16 237.67 11.41C237.14 12 236.84 12.76 236.82 13.55C236.78 15.63 236.67 21.24 236.62 23.47C236.62 23.75 236.39 23.97 236.12 23.97C235.74 23.97 235.41 23.97 235.11 23.97C234.54 23.97 233.99 23.77 233.56 23.4C232.88 22.84 231.84 21.97 231.24 21.46C230.53 20.87 229.73 20.41 228.86 20.09C227.99 19.78 226.82 19.35 225.98 19.05C225.35 18.82 224.72 19.38 224.88 20.03C225.24 21.6 226.18 25.59 226.6 27.36C226.66 27.61 226.47 27.85 226.21 27.85C225.85 27.85 225.45 27.85 225.14 27.85C224.65 27.85 224.18 27.67 223.82 27.34C222.01 25.69 216.92 21.03 215.06 19.33C214.95 19.23 214.78 19.3 214.78 19.45C214.78 21.09 214.78 25.31 214.78 26.87C214.78 27.4 214.87 27.93 215.03 28.43C215.38 29.5 216.28 32.21 216.65 33.35C216.7 33.51 216.55 33.65 216.4 33.59C214.33 32.72 209.76 30.8 208 30.07C207.51 29.86 207.07 30.46 207.42 30.87C208.21 31.8 209.96 33.88 210.93 35.04C211.22 35.37 211.37 35.8 211.36 36.24C211.33 37.61 211.27 41.08 211.25 42.45C211.24 42.86 211.05 43.25 210.73 43.5C210.41 43.76 210.25 43.89 210 44.09C209.49 44.5 209.3 45.2 209.55 45.81C211.25 50.12 216 62.18 217.71 66.53C217.79 66.72 217.55 66.87 217.41 66.73C214.72 64.05 207.08 56.43 204.34 53.69C204.21 53.56 203.98 53.66 203.99 53.85C204.17 60.49 204.62 76.14 204.78 81.84C204.87 85.31 205.28 88.76 205.98 92.16C206.2 93.23 206.75 95.9 207.64 100.17C208 105.01 208.23 108.04 208.32 109.25C208.47 111.29 208.77 113.3 209.21 115.29C209.51 116.62 209.99 118.77 210.35 120.39C210.58 121.4 210.7 122.44 210.71 123.48C210.74 126.34 210.82 133.03 210.86 135.8C210.87 137.06 211.38 138.25 212.28 139.13C212.61 139.45 212.77 139.61 213.24 140.07C213.5 140.32 213.93 140.14 213.93 139.78C213.93 137.14 213.93 130.95 213.93 128.5C213.93 127.44 214.79 126.58 215.86 126.58Z" id="hQpHZsgSq"></path><path d="M339.54 125.02C339.39 124.82 339.67 125.21 339.54 125.02C339.04 124.34 338.68 123.56 338.49 122.74C338.41 122.4 338.55 122.99 338.49 122.74C338.22 121.63 338.19 120.47 338.38 119.35C338.42 119.13 338.52 118.57 338.67 117.69C338.76 117.28 338.81 117.02 338.83 116.92C339.1 115.65 339.23 114.35 339.23 113.05C339.23 112.97 339.23 112.76 339.23 112.42C339.27 111.79 339.29 111.4 339.3 111.24C339.35 110.45 339.29 109.66 339.14 108.88C339.07 108.52 339.16 108.99 339.11 108.73C338.89 107.65 338.55 106.6 338.07 105.61C337.81 105.05 337.81 105.05 337.57 104.54C337.03 103.41 336.34 102.36 335.52 101.41C335.3 101.15 334.73 100.5 333.83 99.45C332.99 98.23 332.47 97.47 332.26 97.17C331.64 96.27 331.12 95.31 330.68 94.31C330.54 93.98 330.75 94.47 330.61 94.13C330.18 93.14 329.93 92.08 329.88 91C329.86 90.44 329.79 89.05 329.69 86.82C329.43 85.68 329.26 84.97 329.2 84.69C329.09 84.24 328.67 83.94 328.21 83.99C327.91 84.02 328.09 84 327.85 84.03C327.1 84.11 326.37 84.34 325.71 84.71C325.19 85 325.11 85.04 324.71 85.26C323.66 85.85 322.56 86.34 321.43 86.74C320.52 87.06 318.26 87.86 314.65 89.13C314.17 89.23 311.8 89.73 307.52 90.62C302.84 91.14 300.24 91.43 299.72 91.49C297.51 91.71 296.12 91.85 295.57 91.91C295.57 91.91 285.34 92.3 285.34 92.3C284.86 92.29 283.65 92.26 281.73 92.22C281.19 92.2 278.49 92.1 273.63 91.92L262.71 91.15C255.96 90.44 252.21 90.05 251.46 89.97C247.56 89.27 245.12 88.83 244.14 88.65C243.04 88.45 241.95 88.15 240.89 87.77C240 87.45 238.69 86.97 237.74 86.63C236.85 86.3 235.99 85.91 235.17 85.44C234.42 85.01 232.54 83.94 229.53 82.23C229.56 79.86 229.58 78.39 229.59 77.8C229.6 77.33 229.69 76.86 229.86 76.43C230 76.07 230.35 75.17 230.91 73.73C231.53 72.32 231.92 71.44 232.08 71.09C232.08 71.09 232.43 70.37 232.43 70.37C232.65 69.96 233.2 68.92 234.08 67.27C234.27 66.97 235.22 65.45 236.92 62.72L239.11 59.19L242.48 54.11L245.32 50.69L248.79 46.92L253.04 43.09L257.21 40.12C260.23 38.4 261.91 37.44 262.25 37.25C263.94 36.52 265 36.07 265.43 35.88C265.43 35.88 269.69 34.26 269.69 34.26C270.5 33.98 271.79 33.55 272.85 33.2C273.44 33 274.06 32.86 274.68 32.79C276.45 32.58 281.1 32.03 282.95 31.81C282.95 31.81 284.18 31.76 284.18 31.76C285.05 31.77 287.23 31.82 290.71 31.89C291.14 31.89 293.26 31.89 297.09 31.89L303.64 32.42L311.05 33.39L319.35 34.54L326.71 35.79L333.35 36.93L338.09 38.48C340.55 39.63 341.92 40.27 342.19 40.4C342.3 42.62 342.37 44 342.4 44.56C342.45 45.54 342.26 46.51 341.86 47.4C341.4 48.41 340.26 50.94 338.44 54.97C335.46 61.4 333.6 65.41 332.85 67.02C332.54 67.71 333.02 68.5 333.78 68.54C334.18 68.55 333.86 68.54 334.28 68.56C335.22 68.6 336.11 68.17 336.66 67.42C339.06 64.15 345.53 55.36 347.97 52.04C348.36 51.51 349.1 51.4 349.63 51.78C350.35 52.3 351.2 52.92 351.83 53.38C352.7 54.02 353.21 55.03 353.21 56.1C353.21 56.77 353.21 58.45 353.21 61.12C353.15 61.7 352.82 64.59 352.24 69.79L351.7 80.35L351.14 90.01L350.22 101.05L348.14 110.54L346.37 121.21L345.08 132.08C344.56 137.16 344.28 139.99 344.22 140.55C344.09 134.01 344.02 129.92 343.99 128.28C343.96 126.98 342.9 125.94 341.6 125.94C341.32 125.94 341.86 125.94 341.34 125.94C340.63 125.94 339.96 125.6 339.54 125.02Z" id="a27PPowkb"></path><path d="M213.99 140.01C214.01 139.75 214.05 139.08 214.12 138.01C214.52 138.01 217.73 138.01 218.13 138.01C218.03 139.38 217.96 140.23 217.94 140.57C217.87 141.42 217.9 142.27 218.02 143.12C218.1 143.63 218.19 144.23 218.27 144.83C218.35 145.4 218.48 145.95 218.64 146.5C218.77 146.95 219.1 148.05 219.62 149.83C219.91 150.42 222.27 155.11 222.56 155.7C223.54 157.14 224.15 158.04 224.4 158.4C224.63 158.75 224.9 159.07 225.19 159.37C225.67 159.84 226.55 160.72 227 161.18C227.36 161.55 227.76 161.89 228.18 162.2C228.47 162.42 229.21 162.96 230.39 163.84C230.63 163.97 231.84 164.64 234.02 165.85L237.96 166.82L241.72 167.4L245.71 167.58L248.67 167.58L251.79 167.4C254.18 167.05 255.5 166.86 255.77 166.82C256.27 166.72 256.58 166.65 256.7 166.62C258.3 166.27 259.85 165.75 261.32 165.05C261.47 164.98 261.83 164.8 262.41 164.53C263.6 163.65 264.34 163.11 264.64 162.89C265.23 162.46 265.77 161.98 266.27 161.45C266.38 161.34 266.65 161.05 267.09 160.6C267.2 160.47 267.73 159.81 268.7 158.62L269.97 156.64L270.96 154.59L271.93 152.16L272.55 149.83L272.98 147.65L273.35 145.68L273.64 143.53L273.91 141.35L284.07 141.06L284.17 143.37L284.28 146.15C284.53 147.81 284.67 148.74 284.7 148.92C284.96 150.27 285.13 151.11 285.2 151.45C285.4 152.48 285.79 153.46 286.36 154.35C286.6 154.74 286.4 154.42 286.62 154.77C287.26 155.77 287.99 156.72 288.78 157.61C289.02 157.87 289.6 158.52 290.54 159.55C290.73 159.72 291.66 160.54 293.35 162.03C295.61 163.68 296.87 164.6 297.12 164.78C297.8 165.15 298.22 165.38 298.39 165.47C299.43 166.03 300.55 166.42 301.71 166.62C301.98 166.66 302.65 166.78 303.72 166.97C304.07 166.99 305.79 167.07 308.9 167.22C312.46 167.14 314.44 167.09 314.84 167.08C316.11 166.88 316.9 166.76 317.21 166.71C318.96 166.45 320.66 165.96 322.28 165.27C322.65 165.11 323.57 164.72 325.03 164.09C325.24 163.97 326.29 163.35 328.17 162.24C329.94 160.84 330.92 160.06 331.12 159.9C332 159.01 332.56 158.46 332.78 158.24C333.84 157.18 334.81 156.03 335.68 154.8C335.85 154.57 335.59 154.92 335.9 154.49C336.29 153.94 336.65 153.35 336.95 152.73C337.21 152.2 337.29 152.05 337.49 151.64C338.01 150.59 338.4 149.48 338.66 148.34C338.74 147.97 338.96 147.03 339.29 145.54C339.33 145.27 339.52 143.92 339.86 141.48L340.19 137.62C342.09 137.59 343.15 137.57 343.36 137.57C343.4 138.85 343.42 139.65 343.43 139.97C343.45 140.35 343.76 140.65 344.14 140.64C344.34 140.63 344.31 140.63 344.52 140.63C344.89 140.62 345.18 140.32 345.18 139.95C345.18 138.38 345.18 134.11 345.18 132.49C345.18 132.24 345.21 131.99 345.26 131.75C345.35 131.32 345.59 130.23 345.96 128.5C346.6 126.61 347.01 125.43 347.17 124.95C347.45 124.13 348.15 123.52 349 123.36C349.27 123.31 348.87 123.39 349.19 123.33C349.96 123.18 350.75 123.11 351.54 123.11C352.1 123.11 352.28 123.11 352.77 123.11C353.76 123.11 354.7 123.54 355.34 124.3C355.57 124.57 355.58 124.58 355.89 124.95C356.29 125.42 356.54 126.01 356.61 126.62C356.65 127.02 356.76 128.03 356.93 129.63C356.93 132.33 356.93 134.02 356.93 134.69C356.93 135.52 356.84 136.35 356.65 137.16C356.42 138.19 355.97 140.21 355.72 141.27C355.57 141.97 355.35 142.65 355.07 143.31C354.59 144.44 353.64 146.68 353.18 147.77C352.85 148.57 352.42 149.33 351.92 150.03C351.44 150.7 350.25 152.36 348.35 155.01C348.03 155.35 346.43 157.07 343.55 160.15C340.1 163.57 338.18 165.47 337.8 165.85C338.03 161.82 338.18 159.3 338.23 158.29C338.25 158.05 337.96 157.91 337.78 158.08C336.35 159.4 332.8 162.7 327.11 167.99C326.93 169.06 326.03 174.42 324.41 184.07L322.65 194.58C319.42 197.3 317.63 198.82 317.27 199.12C316.84 197.37 316.57 196.28 316.46 195.84C316.06 194.2 315.38 192.65 314.43 191.26C314.21 190.93 314.72 191.68 314.43 191.26C313.69 190.17 312.84 189.15 311.9 188.23C311.49 187.84 311.05 187.41 310.48 186.86C310.08 186.47 309.58 186.2 309.04 186.08C308.37 185.93 307.42 185.72 306.81 185.58C306.06 185.41 305.3 185.34 304.53 185.35C301.32 185.42 293.29 185.59 280.44 185.87C280.44 186.8 280.44 194.2 280.44 195.13C293.66 195.05 301.92 194.99 305.22 194.97C305.97 194.96 306.71 195.16 307.35 195.55C307.62 195.71 307.43 195.6 307.7 195.76C308.34 196.15 308.84 196.75 309.1 197.46C309.33 198.09 309.91 199.67 310.84 202.21C308.85 203.52 298.88 210.06 280.95 221.83L273.15 221.83L245.83 204.75L246.52 201.27L248.67 198.24L250.84 195.64L254.39 194.28L257.71 194.28L261.67 194.73L267.09 194.96L273.15 195.13L276.7 195.13L276.7 190.27L276.57 185.56L274.06 185.56L268.83 185.33L263.42 185.17C259.03 185 256.59 184.9 256.1 184.88C253.04 184.75 251.12 184.66 250.36 184.63C249.8 184.61 249.26 184.77 248.81 185.1C248.16 185.56 247.13 186.31 246.54 186.74C245.91 187.2 245.34 187.75 244.87 188.37C244.5 188.86 244.43 188.95 244.14 189.33C243.39 190.31 242.75 191.38 242.23 192.5C241.98 193.02 241.98 193.02 241.72 193.57C241.24 194.6 240.95 195.72 240.86 196.86C240.83 197.37 240.73 198.65 240.58 200.69C237.06 198.29 234.86 196.79 233.98 196.19C233.63 195.95 233.41 195.56 233.39 195.14C233.32 193.52 233.18 190.63 233.12 189.33C233.05 187.8 232.75 186.3 232.23 184.86C230.82 181 227.39 171.61 225.98 167.76C225.45 166.32 224.61 165.01 223.5 163.95C222.27 162.75 219.13 159.71 217.62 158.24C217.53 158.15 217.38 158.23 217.4 158.36C217.5 159.01 217.74 160.64 218.13 163.24C216.84 162.81 216.03 162.54 215.71 162.43C214.91 162.16 214.18 161.75 213.54 161.2C212.95 160.7 212.5 160.31 212 159.88C211.06 159.07 210.19 158.19 209.39 157.23C208.96 156.7 209.01 156.77 208.61 156.29C207.68 155.16 206.83 153.96 206.07 152.7C205.79 152.23 205.09 151.06 203.96 149.19C203.44 148.4 203.11 147.91 202.98 147.71C202.02 146.27 201.28 144.69 200.8 143.03C200.74 142.81 200.57 142.25 200.31 141.35C199.88 139.96 199.61 139.1 199.5 138.75C199.05 137.33 198.74 135.88 198.56 134.41C198.48 133.74 198.56 134.46 198.5 133.92C198.27 132.04 198.3 130.13 198.58 128.25C198.63 127.93 198.49 128.82 198.58 128.25C198.74 127.18 199.17 126.17 199.83 125.31C200.17 124.87 200.49 124.46 200.9 123.92C201.3 123.4 201.9 123.07 202.55 123.01C203.42 122.93 202.35 123.03 202.55 123.01C205.28 122.76 207.98 123.73 209.91 125.68C209.91 125.68 209.91 125.68 209.91 125.68C210.13 131.2 210.27 134.66 210.33 136.04C210.37 137.17 210.89 138.22 211.74 138.96C212.18 139.33 212.73 139.8 213.32 140.3C213.57 140.52 213.97 140.35 213.99 140.01Z" id="h82VtpwxU"></path><path d="M219.58 104.57C219.78 104.26 220.3 103.49 221.12 102.25C221.32 101.99 222.35 100.68 224.19 98.32C225.32 96.74 225.94 95.86 226.07 95.68C226.93 93.37 227.46 91.94 227.68 91.36C227.9 90.75 228.02 90.1 228.02 89.44C228.02 88.58 228.02 86.42 228.02 82.97C228.1 82.97 228.48 82.97 229.17 82.97C230.87 84 231.81 84.58 232 84.69C234.59 86.02 236.22 86.85 236.87 87.18C237.25 87.38 237.64 87.54 238.04 87.68C238.73 87.91 240.46 88.48 243.21 89.39C243.77 89.5 246.58 90.03 251.64 90.99L257.81 91.5L268.87 92.55L279.4 93.01L288 93.13L297.14 92.64L308.04 91.5L314.95 89.94C317.07 89.19 318.25 88.77 318.49 88.69C320.19 88.09 321.26 87.72 321.68 87.57C322.84 87.16 323.96 86.66 325.03 86.07C325.72 85.69 326.44 85.3 327.19 84.88C327.81 84.55 328.57 84.95 328.63 85.64C328.66 85.91 328.66 85.9 328.7 86.34C328.7 86.34 328.8 87.59 328.8 87.59C328.85 88.49 328.92 89.84 328.96 90.56C329.02 91.59 329.23 92.61 329.58 93.59C329.72 93.98 329.75 94.05 329.92 94.53C330.16 95.2 330.49 95.82 330.91 96.39C331.62 97.38 333.39 99.85 336.24 103.8C337.02 105.46 337.51 106.49 337.71 106.91C337.95 107.43 338.12 107.99 338.19 108.56C338.22 108.77 338.3 109.31 338.41 110.16C338.41 110.68 338.41 111 338.41 111.12C338.41 111.12 338.33 114.21 338.33 114.21C338.3 114.75 338.3 114.73 338.27 115.24C338.21 116.35 338.03 117.46 337.73 118.53C337.59 119.03 337.82 118.21 337.73 118.53C337.29 120.13 337.46 121.83 338.2 123.31C338.37 123.65 338.79 124.48 339.46 125.81C336.64 125.78 314.09 125.54 311.27 125.51C309.6 125.54 308.55 125.56 308.13 125.57C306.92 125.59 305.72 125.74 304.54 126C304.11 126.1 303.01 126.35 301.26 126.74C300.59 126.96 295.24 128.67 294.57 128.89C292.46 129.91 291.14 130.55 290.61 130.8C289.83 131.18 289.11 131.66 288.46 132.23C288.06 132.58 287.04 133.48 285.42 134.91C284.14 134.88 273.87 134.64 272.59 134.61C272.08 133.97 271.76 133.56 271.63 133.4C271.12 132.75 270.48 132.22 269.75 131.84C268.86 131.38 267.46 130.64 266.61 130.2C265.75 129.75 264.84 129.39 263.9 129.15C263.21 128.97 261.49 128.51 258.72 127.78C254.84 127.21 252.41 126.86 251.44 126.72C250.28 126.55 249.11 126.46 247.94 126.46C243.94 126.46 233.94 126.46 217.93 126.46C217.99 117.11 218.02 111.27 218.04 108.93C218.04 108.28 218.15 107.62 218.35 107C218.43 106.76 218.22 107.39 218.27 107.25C218.58 106.3 219.02 105.4 219.58 104.57Z" id="cEjFfOS1"></path><path d="M238.57 130.23C243.59 130.16 246.73 130.11 247.98 130.09C248.23 130.09 248.48 130.1 248.73 130.14C249.52 130.24 251.49 130.51 254.64 130.93C257.51 131.46 259.3 131.78 260.02 131.91C260.62 132.02 261.21 132.18 261.79 132.39C262.26 132.57 263.45 133 265.35 133.7C266.59 134.33 267.36 134.72 267.68 134.88C268.58 135.34 269.29 136.12 269.66 137.06C269.75 137.29 269.4 136.4 269.48 136.6C269.89 137.65 270.08 138.77 270.04 139.89C270.02 140.57 270.02 140.6 270 141.21C269.96 142.61 269.79 144.01 269.51 145.39C269.33 146.28 269.23 146.74 269.05 147.59C268.75 149.07 268.32 150.52 267.77 151.93C267.69 152.15 267.48 152.68 267.15 153.54C266.87 154.05 266.69 154.36 266.62 154.49C265.86 155.89 264.98 157.22 264.01 158.49C263.85 158.69 264.6 157.71 264.39 157.99C263.63 158.98 262.71 159.83 261.67 160.52C261.46 160.66 261.68 160.51 261.3 160.77C260.84 161.07 260.36 161.33 259.87 161.55C259.25 161.82 258.94 161.95 258.53 162.14C257.37 162.65 256.14 163 254.89 163.17C254.51 163.23 253.54 163.36 252 163.58C251.48 163.61 247.28 163.89 246.76 163.92C245.48 163.89 244.68 163.87 244.36 163.87C242.7 163.83 241.04 163.62 239.42 163.26C238.36 163.02 237.67 162.86 236.63 162.62C234.99 162.25 233.45 161.52 232.13 160.47C231.36 159.86 231.15 159.69 230.4 159.1C228.99 157.98 227.75 156.65 226.73 155.17C226.23 154.44 225.91 153.98 225.32 153.12C224.61 152.08 223.98 150.98 223.44 149.84C223.21 149.37 223.6 150.18 223.44 149.84C222.7 148.28 222.19 146.62 221.92 144.91C221.91 144.82 221.87 144.6 221.81 144.23C221.79 143.35 221.63 136.3 221.61 135.42C222.56 134.33 223.16 133.65 223.4 133.37C224.39 132.25 225.69 131.46 227.14 131.1C227.61 130.99 228.78 130.7 230.66 130.23C232.24 130.23 237.78 130.23 238.57 130.23Z" id="a18fXUMD7h"></path><path d="M258.75 146.01C257.4 146.3 256.56 146.47 256.23 146.54C256.23 146.54 254.03 146.9 254.03 146.9C253.41 146.97 253.11 147.01 252.6 147.07C252.6 147.07 249.27 147.24 249.27 147.24C248.98 147.24 248.24 147.23 247.07 147.22C246.66 147.22 243.42 147.16 243.02 147.15C242.12 147.15 241.55 147.15 241.32 147.15C240.95 147.15 240.57 147.1 240.21 147C240.05 146.95 239.94 146.92 239.73 146.86C239.73 146.86 239.13 146.67 239.13 146.67C238.78 146.55 237.9 146.25 236.5 145.76" id="d3HbPYJkD7"></path><path d="M324.35 129.38C323.65 129.35 321.89 129.28 319.07 129.17C314.23 129.17 311.2 129.17 309.99 129.17C308.88 129.17 307.77 129.25 306.67 129.43C305.94 129.54 307 129.37 306.67 129.43C304.23 129.81 301.82 130.38 299.46 131.13C298.91 131.3 298.67 131.38 297.59 131.72C297.59 131.72 295.85 132.31 295.85 132.31C295.38 132.49 294.19 132.92 292.29 133.61C291.46 134.04 290.94 134.3 290.73 134.41C289.34 135.12 288.27 136.34 287.76 137.81C287.65 138.14 287.92 137.35 287.76 137.81C287.39 138.88 287.27 140.02 287.42 141.15C287.48 141.57 287.38 140.81 287.42 141.15C287.42 141.15 287.84 145.35 287.84 145.35C287.9 146.23 287.95 146.96 288.01 147.89C288.09 149.11 288.37 150.31 288.83 151.45C289 151.85 288.69 151.11 288.83 151.45C289.37 152.78 290.11 154.02 291.03 155.13C291.26 155.4 290.45 154.42 290.64 154.66C290.64 154.66 293.63 158.41 293.63 158.41C293.79 158.61 293.34 158.03 293.63 158.41C294.14 159.07 294.75 159.64 295.45 160.1C295.76 160.3 295.45 160.1 295.71 160.27C296.59 160.85 297.51 161.35 298.47 161.77C298.95 161.98 298.03 161.58 298.28 161.69C299.99 162.44 301.8 162.96 303.65 163.22C303.92 163.26 304.58 163.35 305.64 163.5C306.16 163.53 310.36 163.81 310.88 163.84C311.53 163.83 311.94 163.82 312.1 163.81C314.55 163.76 316.98 163.46 319.37 162.92C320.2 162.73 319.18 162.96 320.03 162.77C322.32 162.25 324.46 161.22 326.3 159.77C326.91 159.28 325.87 160.1 326.47 159.63C328.39 158.1 330.13 156.34 331.63 154.39C332.05 153.84 331.95 153.97 332.59 153.13C333.36 152.13 333.99 151.03 334.45 149.86C334.64 149.37 334.31 150.21 334.45 149.86C335.08 148.25 335.54 146.58 335.82 144.87C335.91 144.34 336.12 143.03 336.46 140.93C336.67 138.17 336.81 136.44 336.86 135.75C336.91 135.04 336.63 134.35 336.09 133.88C335.48 133.36 335.24 133.15 334.81 132.79C333.67 131.8 332.33 131.06 330.88 130.62C330.14 130.4 330.49 130.51 329.85 130.31C328.06 129.77 326.22 129.45 324.35 129.38Z" id="b1FCnSFj1X"></path><path d="M358.11 303.13L334.4 393.32L433.79 394.31L429.81 485.8C433.13 448.12 435.2 424.57 436.03 415.15C436.07 414.77 436.57 414.66 436.76 414.99C441.24 422.97 452.44 442.93 470.36 474.86C477.32 474.29 481.67 473.93 483.41 473.79C483.59 473.78 483.65 474.02 483.48 474.09C481.24 475.01 475.58 477.32 473.37 478.23C472.78 478.47 472.52 479.16 472.8 479.73C473.21 480.57 473.9 481.96 474.3 482.78C474.64 483.48 475.35 483.92 476.12 483.92C482.13 483.92 498.94 483.92 504.96 483.92C505.33 483.92 505.49 484.4 505.18 484.61C504.72 484.94 503.55 485.76 501.7 487.07L470.94 490.99L429.21 513.16L427.07 574.54L539.21 521.01L546.6 487.19C495.39 385.11 463.38 321.32 450.58 295.8C450.41 295.45 449.89 295.51 449.79 295.88C447.84 303.42 442.98 322.26 435.19 352.4L437.34 281.67L375.51 263.64L358.11 303.13Z" id="eac2CCWhO"></path><path d="M298.56 147.17C299.91 147.46 300.75 147.63 301.08 147.7C301.08 147.7 303.28 148.06 303.28 148.06C303.9 148.13 304.2 148.17 304.71 148.23C304.71 148.23 308.04 148.4 308.04 148.4C308.33 148.4 309.06 148.39 310.24 148.38C310.65 148.37 313.89 148.32 314.29 148.31C315.19 148.31 315.76 148.31 315.98 148.31C316.36 148.31 316.74 148.26 317.1 148.16C317.26 148.11 317.37 148.08 317.58 148.02C317.58 148.02 318.18 147.83 318.18 147.83C318.53 147.71 319.4 147.41 320.81 146.92" id="aBa52kowd"></path><path d="M216.95 129.75L230.39 129.75L229.62 129.83L227.8 130.18L226.55 130.59L225.19 131.11L223.91 131.89L222.66 133.36L221.17 135.05L216.95 135.05L216.95 129.75Z" id="dHbM75yJ"></path><path d="M330.87 130.2L333.43 131.13L334.94 132.23L336.97 134.31L341.2 134.31L341.2 129.17L325.92 128.94L330.87 130.2Z" id="d2F6BFO5Od"></path></defs><g><g><g><use xlink:href="#a1j6IoLk93" opacity="1" fill="#81519f" fill-opacity="1"></use><g><use xlink:href="#a1j6IoLk93" opacity="1" fill-opacity="0" stroke="#000000" stroke-width="1" stroke-opacity="1"></use></g></g><g><use xlink:href="#b9y0xJi8" opacity="1" fill="#ffffff" fill-opacity="1"></use><g><use xlink:href="#b9y0xJi8" opacity="1" fill-opacity="0" stroke="#000000" stroke-width="1" stroke-opacity="1"></use></g></g><g><use xlink:href="#a108uXBCtO" opacity="1" fill="#d1d5d6" fill-opacity="1"></use><g><use xlink:href="#a108uXBCtO" opacity="1" fill-opacity="0" stroke="#000000" stroke-width="1" stroke-opacity="1"></use></g></g><g><use xlink:href="#a4MpscUiw" opacity="1" fill="#f15b5a" fill-opacity="1"></use><g><use xlink:href="#a4MpscUiw" opacity="1" fill-opacity="0" stroke="#000000" stroke-width="1" stroke-opacity="1"></use></g></g><g><use xlink:href="#cUTXNiHax" opacity="1" fill="#cc5652" fill-opacity="1"></use><g><use xlink:href="#cUTXNiHax" opacity="1" fill-opacity="0" stroke="#000000" stroke-width="1" stroke-opacity="1"></use></g></g><g><use xlink:href="#b5KgnNOlS" opacity="1" fill="#98cfd2" fill-opacity="1"></use><g><use xlink:href="#b5KgnNOlS" opacity="1" fill-opacity="0" stroke="#000000" stroke-width="1" stroke-opacity="1"></use></g></g><g><use xlink:href="#a63myRc5lY" opacity="1" fill="#84c1c1" fill-opacity="1"></use><g><use xlink:href="#a63myRc5lY" opacity="1" fill-opacity="0" stroke="#000000" stroke-width="1" stroke-opacity="1"></use></g></g><g><use xlink:href="#bsfDhhGe" opacity="1" fill="#59b7ac" fill-opacity="1"></use><g><use xlink:href="#bsfDhhGe" opacity="1" fill-opacity="0" stroke="#000000" stroke-width="1" stroke-opacity="1"></use></g></g><g><use xlink:href="#c1dLRM77KZ" opacity="1" fill="#59b7ac" fill-opacity="1"></use><g><use xlink:href="#c1dLRM77KZ" opacity="1" fill-opacity="0" stroke="#000000" stroke-width="1" stroke-opacity="1"></use></g></g><g><use xlink:href="#a2MIIlSPvs" opacity="1" fill="#84c1c1" fill-opacity="1"></use><g><use xlink:href="#a2MIIlSPvs" opacity="1" fill-opacity="0" stroke="#000000" stroke-width="1" stroke-opacity="1"></use></g></g><g><use xlink:href="#f2fJMkDdBh" opacity="1" fill="#98cfd2" fill-opacity="1"></use><g><use xlink:href="#f2fJMkDdBh" opacity="1" fill-opacity="0" stroke="#000000" stroke-width="1" stroke-opacity="1"></use></g></g><g><use xlink:href="#d328H9jshx" opacity="1" fill="#5db5ab" fill-opacity="1"></use><g><use xlink:href="#d328H9jshx" opacity="1" fill-opacity="0" stroke="#000000" stroke-width="1" stroke-opacity="1"></use></g></g><g><use xlink:href="#b1IfVQyxGY" opacity="1" fill="#f2bfad" fill-opacity="1"></use><g><use xlink:href="#b1IfVQyxGY" opacity="1" fill-opacity="0" stroke="#000000" stroke-width="1" stroke-opacity="1"></use></g></g><g><use xlink:href="#a49lcdkuco" opacity="1" fill="#291310" fill-opacity="1"></use><g><use xlink:href="#a49lcdkuco" opacity="1" fill-opacity="0" stroke="#000000" stroke-width="1" stroke-opacity="1"></use></g></g><g><use xlink:href="#bcnbKjEJj" opacity="1" fill="#000000" fill-opacity="0"></use><g><use xlink:href="#bcnbKjEJj" opacity="1" fill-opacity="0" stroke="#000000" stroke-width="3" stroke-opacity="1"></use></g></g><g><use xlink:href="#hQpHZsgSq" opacity="1" fill="#3e2221" fill-opacity="1"></use><g><use xlink:href="#hQpHZsgSq" opacity="1" fill-opacity="0" stroke="#000000" stroke-width="1" stroke-opacity="1"></use></g></g><g><use xlink:href="#a27PPowkb" opacity="1" fill="#2f1310" fill-opacity="1"></use><g><use xlink:href="#a27PPowkb" opacity="1" fill-opacity="0" stroke="#000000" stroke-width="1" stroke-opacity="1"></use></g></g><g><use xlink:href="#h82VtpwxU" opacity="1" fill="#fac5af" fill-opacity="1"></use><g><use xlink:href="#h82VtpwxU" opacity="1" fill-opacity="0" stroke="#000000" stroke-width="1" stroke-opacity="1"></use></g></g><g><use xlink:href="#cEjFfOS1" opacity="1" fill="#fac5af" fill-opacity="1"></use><g><use xlink:href="#cEjFfOS1" opacity="1" fill-opacity="0" stroke="#000000" stroke-width="1" stroke-opacity="1"></use></g></g><g><use xlink:href="#a18fXUMD7h" opacity="1" fill="#fac5af" fill-opacity="1"></use><g><use xlink:href="#a18fXUMD7h" opacity="1" fill-opacity="0" stroke="#000000" stroke-width="1" stroke-opacity="1"></use></g></g><g><use xlink:href="#d3HbPYJkD7" opacity="1" fill="#000000" fill-opacity="0"></use><g><use xlink:href="#d3HbPYJkD7" opacity="1" fill-opacity="0" stroke="#000000" stroke-width="2" stroke-opacity="1"></use></g></g><g><use xlink:href="#b1FCnSFj1X" opacity="1" fill="#fac5af" fill-opacity="1"></use><g><use xlink:href="#b1FCnSFj1X" opacity="1" fill-opacity="0" stroke="#000000" stroke-width="1" stroke-opacity="1"></use></g></g><g><use xlink:href="#eac2CCWhO" opacity="1" fill="#f15b5a" fill-opacity="1"></use><g><use xlink:href="#eac2CCWhO" opacity="1" fill-opacity="0" stroke="#000000" stroke-width="1" stroke-opacity="1"></use></g></g><g><use xlink:href="#aBa52kowd" opacity="1" fill="#000000" fill-opacity="0"></use><g><use xlink:href="#aBa52kowd" opacity="1" fill-opacity="0" stroke="#000000" stroke-width="2" stroke-opacity="1"></use></g></g><g><use xlink:href="#dHbM75yJ" opacity="1" fill="#fac5af" fill-opacity="1"></use><g><use xlink:href="#dHbM75yJ" opacity="1" fill-opacity="0" stroke="#000000" stroke-width="1" stroke-opacity="1"></use></g></g><g><use xlink:href="#d2F6BFO5Od" opacity="1" fill="#fac5af" fill-opacity="1"></use><g><use xlink:href="#d2F6BFO5Od" opacity="1" fill-opacity="0" stroke="#000000" stroke-width="1" stroke-opacity="1"></use></g></g></g></g></svg>