<?xml version="1.0" encoding="UTF-8" standalone="no"?>
<!DOCTYPE svg PUBLIC "-//W3C//DTD SVG 1.1//EN" "http://www.w3.org/Graphics/SVG/1.1/DTD/svg11.dtd">
<svg version="1.1" xmlns="http://www.w3.org/2000/svg" xmlns:xlink="http://www.w3.org/1999/xlink" preserveAspectRatio="xMidYMid meet" viewBox="0 0 640 640" width="640" height="640"><defs><path d="M245.81 372.33C243.67 368.83 242.34 366.65 241.8 365.77C241.8 365.77 228.07 346.46 228.07 346.46C227.11 345.29 224.7 342.36 220.86 337.68C218.27 334.61 216.66 332.69 216.01 331.92C209.39 324.05 203.64 315.5 198.86 306.39C198 304.75 200.04 308.64 198.54 305.78C195.88 300.72 193.77 295.4 192.23 289.91C191.54 287.43 192.69 291.56 192.23 289.91C189.92 281.67 188.65 273.18 188.43 264.63C188.37 262.17 188.49 266.95 188.42 264.32C188.22 256.33 188.65 248.33 189.72 240.41C190.02 238.16 189.4 242.79 189.72 240.41C190.73 232.91 192.4 225.51 194.71 218.3C195.34 216.33 194.14 220.08 194.86 217.82C196.85 211.59 199.34 205.54 202.32 199.72C203.49 197.42 201.44 201.43 202.34 199.67C206.23 192.05 210.95 184.89 216.41 178.31C216.41 178.31 216.41 178.31 216.41 178.31C219.13 175.3 220.83 173.41 221.51 172.66C226.15 167.51 231.28 162.8 236.81 158.62C238.28 157.51 236.29 159.02 238.24 157.54C242.17 154.56 246.37 151.94 250.76 149.69C253.16 148.46 254.63 147.71 257.25 146.37C260.92 144.5 264.74 142.95 268.67 141.74C271.79 140.78 273.32 140.31 275.96 139.5C281.48 137.8 287.14 136.59 292.87 135.89C293.98 135.76 296.76 135.42 301.21 134.88C309.05 134.88 313.95 134.88 315.91 134.88C321.53 134.88 327.14 135.33 332.69 136.24C335.57 136.71 338.12 137.13 341.56 137.69C345.24 138.29 348.83 139.32 352.27 140.75C355.62 142.14 359.76 143.85 362.92 145.17C366.97 146.85 370.84 148.92 374.47 151.36C376.67 152.83 377.16 153.16 379.19 154.53C383.35 157.32 387.31 160.4 391.03 163.75C392.22 164.82 395.19 167.49 399.94 171.77C404.67 176.9 407.63 180.1 408.81 181.39C412.16 185.02 415.11 189.01 417.59 193.28C418.87 195.48 418.65 195.11 419.85 197.18C422.58 201.88 424.76 206.88 426.35 212.08C427.21 214.92 427.6 216.21 428.51 219.2C429.95 223.92 431.05 228.74 431.8 233.62C432.16 235.92 431.73 233.12 431.99 234.82C433.05 241.69 433.58 248.63 433.58 255.58C433.58 256.7 433.58 259.5 433.58 263.99C433.09 269.91 432.79 273.61 432.67 275.09C432.2 280.71 430.98 286.24 429.03 291.53C428.02 294.28 427.32 296.17 426.16 299.32C424.7 303.28 422.94 307.12 420.9 310.82C419.31 313.71 420.75 311.09 419.95 312.55C415.28 321.01 409.93 329.08 403.96 336.68C401.86 339.35 396.63 346.01 388.25 356.67C385.96 359.65 384.53 361.51 383.96 362.26C377.01 371.32 371.59 381.45 367.91 392.26C367.35 393.89 369.02 389 367.91 392.26C366.25 397.13 361.68 400.4 356.54 400.4C336.62 400.4 284.53 400.4 264.37 400.4C260.01 400.4 256.21 397.42 255.16 393.19C254.66 391.16 255.52 394.63 255.16 393.19C253.5 386.47 250.75 380.06 247.03 374.23C246.86 373.98 246.46 373.34 245.81 372.33Z" id="cc2AQi4rT"></path><path d="M128.65 239.59C134.17 239.59 138.65 244.06 138.65 249.59C138.65 252.12 138.65 249.71 138.65 252.24C138.65 257.77 134.17 262.24 128.65 262.24C120.96 262.24 107.9 262.24 100.21 262.24C94.69 262.24 90.21 257.77 90.21 252.24C90.21 249.71 90.21 252.12 90.21 249.59C90.21 244.06 94.69 239.59 100.21 239.59C107.9 239.59 120.96 239.59 128.65 239.59Z" id="b1oBZKRquu"></path><path d="M152.4 155.61C157.1 158.51 158.56 164.67 155.67 169.37C154.34 171.52 155.6 169.47 154.27 171.63C151.38 176.33 145.21 177.79 140.51 174.89C133.97 170.86 122.85 164.01 116.31 159.97C111.6 157.07 110.14 150.91 113.04 146.21C114.37 144.06 113.11 146.11 114.43 143.95C117.33 139.25 123.49 137.79 128.19 140.69C134.74 144.72 145.86 151.57 152.4 155.61Z" id="caeXJwZ26"></path><path d="M215.06 92.12C218.4 96.52 217.53 102.79 213.13 106.13C211.12 107.66 213.03 106.2 211.02 107.73C206.62 111.07 200.34 110.21 197.01 105.81C192.36 99.68 184.47 89.27 179.83 83.15C176.49 78.74 177.35 72.47 181.75 69.14C183.77 67.61 181.85 69.06 183.87 67.53C188.27 64.19 194.54 65.06 197.88 69.46C202.52 75.58 210.42 85.99 215.06 92.12Z" id="a1FJrGdkB"></path><path d="M322.94 77.49C323.01 83.01 318.58 87.54 313.06 87.6C310.53 87.63 312.93 87.6 310.4 87.63C304.88 87.69 300.35 83.27 300.29 77.74C300.2 70.06 300.05 57 299.97 49.31C299.9 43.79 304.33 39.26 309.85 39.2C312.38 39.17 309.98 39.2 312.51 39.17C318.03 39.1 322.56 43.53 322.62 49.05C322.71 56.74 322.86 69.8 322.94 77.49Z" id="c3Vo8lkrWV"></path><path d="M442.72 83.15C446.06 78.74 445.19 72.47 440.79 69.14C438.78 67.61 440.69 69.06 438.68 67.53C434.28 64.19 428 65.06 424.67 69.46C420.02 75.58 412.13 85.99 407.49 92.12C404.15 96.52 405.01 102.79 409.41 106.13C411.43 107.66 409.51 106.2 411.53 107.73C415.93 111.07 422.2 110.21 425.54 105.81C430.18 99.68 438.08 89.27 442.72 83.15Z" id="f7VRy1wzN"></path><path d="M465.76 155.61C461.06 158.51 459.6 164.67 462.49 169.37C463.82 171.52 462.56 169.47 463.89 171.63C466.79 176.33 472.95 177.79 477.65 174.89C484.19 170.86 495.31 164.01 501.86 159.97C506.56 157.07 508.02 150.91 505.12 146.21C503.79 144.06 505.06 146.11 503.73 143.95C500.83 139.25 494.67 137.79 489.97 140.69C483.42 144.72 472.3 151.57 465.76 155.61Z" id="a36nhBZ6g"></path><path d="M522.25 239.59C527.77 239.59 532.25 244.06 532.25 249.59C532.25 252.12 532.25 249.71 532.25 252.24C532.25 257.77 527.77 262.24 522.25 262.24C514.56 262.24 501.5 262.24 493.81 262.24C488.28 262.24 483.81 257.77 483.81 252.24C483.81 249.71 483.81 252.12 483.81 249.59C483.81 244.06 488.28 239.59 493.81 239.59C501.5 239.59 514.56 239.59 522.25 239.59Z" id="di0IqgmeM"></path><path d="M253.92 474.07L368.03 474.07L368.03 459.71L253.92 459.71L253.92 474.07Z" id="b12rfJCpJ"></path><path d="M358.64 503.21C363.83 503.21 368.03 499.01 368.03 493.82C368.03 492.55 368.03 489.37 368.03 484.28L253.92 484.28C253.92 489.06 253.92 492.04 253.92 493.23C253.92 498.74 258.39 503.21 263.9 503.21C284.72 503.21 337.7 503.21 358.64 503.21Z" id="d2ERzxFjG1"></path><path d="M392.29 400.77C394.94 396.43 396.6 393.72 397.26 392.64C397.26 392.64 414.29 368.69 414.29 368.69C415.49 367.23 418.47 363.6 423.24 357.79C426.45 353.98 428.45 351.6 429.25 350.65C437.46 340.89 444.59 330.27 450.53 318.98C451.6 316.94 449.06 321.77 450.93 318.22C454.22 311.95 456.84 305.35 458.75 298.53C459.61 295.46 458.18 300.58 458.75 298.53C461.61 288.32 463.2 277.78 463.46 267.17C463.54 264.12 463.39 270.06 463.47 266.79C463.73 256.88 463.19 246.96 461.87 237.14C461.49 234.34 462.26 240.09 461.87 237.14C460.61 227.83 458.54 218.65 455.68 209.7C454.9 207.26 456.39 211.92 455.49 209.11C453.02 201.39 449.93 193.88 446.24 186.66C444.78 183.8 447.32 188.78 446.21 186.6C441.39 177.15 435.53 168.26 428.75 160.1C428.75 160.1 428.75 160.1 428.75 160.1C425.38 156.37 423.28 154.03 422.44 153.09C416.67 146.7 410.32 140.87 403.45 135.67C401.63 134.3 404.1 136.17 401.68 134.34C396.8 130.65 391.6 127.39 386.14 124.6C383.17 123.08 381.34 122.15 378.1 120.49C373.55 118.16 368.81 116.24 363.93 114.74C360.07 113.55 358.16 112.96 354.89 111.95C348.04 109.85 341.02 108.35 333.91 107.49C332.53 107.32 329.09 106.9 323.57 106.22C313.84 106.22 307.76 106.22 305.33 106.22C298.36 106.22 291.4 106.79 284.52 107.92C280.94 108.5 277.78 109.02 273.51 109.72C268.95 110.46 264.49 111.73 260.23 113.51C256.08 115.23 250.94 117.36 247.01 118.99C242 121.07 237.2 123.65 232.69 126.68C229.97 128.5 229.36 128.91 226.83 130.61C221.68 134.07 216.77 137.89 212.15 142.04C210.68 143.37 207 146.69 201.1 151.99C195.23 158.35 191.56 162.33 190.09 163.92C185.93 168.42 182.28 173.37 179.2 178.68C177.62 181.4 177.89 180.94 176.4 183.5C173.01 189.33 170.31 195.54 168.34 201.99C167.27 205.51 166.78 207.11 165.65 210.82C163.87 216.68 162.5 222.66 161.57 228.71C161.13 231.57 161.67 228.08 161.34 230.2C160.03 238.72 159.37 247.33 159.37 255.95C159.37 257.34 159.37 260.82 159.37 266.38C159.98 273.73 160.35 278.32 160.5 280.16C161.08 287.13 162.59 293.99 165.01 300.55C166.27 303.95 167.14 306.3 168.58 310.21C170.39 315.12 172.57 319.88 175.1 324.47C177.08 328.05 175.29 324.81 176.28 326.61C182.07 337.11 188.71 347.13 196.12 356.56C198.71 359.86 205.21 368.12 215.6 381.34C218.43 385.04 220.21 387.35 220.92 388.28C229.54 399.52 236.27 412.09 240.83 425.5C241.52 427.52 239.45 421.45 240.83 425.5C242.89 431.53 248.56 435.59 254.93 435.59C279.64 435.59 344.26 435.59 369.26 435.59C374.67 435.59 379.39 431.9 380.69 426.64C381.31 424.13 380.25 428.43 380.69 426.64C382.75 418.31 386.15 410.37 390.78 403.13C390.98 402.82 391.48 402.03 392.29 400.77Z" id="cLwh4i8jV"></path><path d="M241.93 489.12C241.93 492.79 242 501.95 248.21 508.63C254.41 515.32 264.16 514.73 267.54 514.73C290.04 514.73 342.28 514.73 360.96 514.73C371.48 514.73 380.01 506.2 380.01 495.68C380.01 485.81 380.01 465.3 380.01 452.94C380.01 449.3 377.07 446.35 373.43 446.35C347.13 446.35 274.3 446.35 247.88 446.35C244.6 446.35 241.93 449.01 241.93 452.29C241.93 448.33 241.93 460.61 241.93 489.12Z" id="d1lBeg9NBP"></path></defs><g><g><g><use xlink:href="#cc2AQi4rT" opacity="1" fill="#eec211" fill-opacity="0.11"></use><g><use xlink:href="#cc2AQi4rT" opacity="1" fill-opacity="0" stroke="#eec211" stroke-width="3" stroke-opacity="1"></use></g></g><g><g><use xlink:href="#b1oBZKRquu" opacity="1" fill-opacity="0" stroke="#eec211" stroke-width="3" stroke-opacity="1"></use></g></g><g><g><use xlink:href="#caeXJwZ26" opacity="1" fill-opacity="0" stroke="#eec211" stroke-width="3" stroke-opacity="1"></use></g></g><g><g><use xlink:href="#a1FJrGdkB" opacity="1" fill-opacity="0" stroke="#eec211" stroke-width="3" stroke-opacity="1"></use></g></g><g><g><use xlink:href="#c3Vo8lkrWV" opacity="1" fill-opacity="0" stroke="#eec211" stroke-width="3" stroke-opacity="1"></use></g></g><g><g><use xlink:href="#f7VRy1wzN" opacity="1" fill-opacity="0" stroke="#eec211" stroke-width="3" stroke-opacity="1"></use></g></g><g><g><use xlink:href="#a36nhBZ6g" opacity="1" fill-opacity="0" stroke="#eec211" stroke-width="3" stroke-opacity="1"></use></g></g><g><g><use xlink:href="#di0IqgmeM" opacity="1" fill-opacity="0" stroke="#eec211" stroke-width="3" stroke-opacity="1"></use></g></g><g><g><use xlink:href="#b12rfJCpJ" opacity="1" fill-opacity="0" stroke="#f1c40f" stroke-width="3" stroke-opacity="1"></use></g></g><g><g><use xlink:href="#d2ERzxFjG1" opacity="1" fill-opacity="0" stroke="#f1c40f" stroke-width="3" stroke-opacity="1"></use></g></g><g><g><use xlink:href="#cLwh4i8jV" opacity="1" fill-opacity="0" stroke="#eec211" stroke-width="3" stroke-opacity="1"></use></g></g><g><g><use xlink:href="#d1lBeg9NBP" opacity="1" fill-opacity="0" stroke="#f1c40f" stroke-width="3" stroke-opacity="1"></use></g></g></g></g></svg>