<?xml version="1.0" encoding="UTF-8" standalone="no"?>
<!DOCTYPE svg PUBLIC "-//W3C//DTD SVG 1.1//EN" "http://www.w3.org/Graphics/SVG/1.1/DTD/svg11.dtd">
<svg version="1.1" xmlns="http://www.w3.org/2000/svg" xmlns:xlink="http://www.w3.org/1999/xlink" preserveAspectRatio="xMidYMid meet" viewBox="0 0 640 640" width="640" height="640"><defs><path d="M172.5 450.17C173.64 450.17 174.56 451.09 174.56 452.23C174.56 452.8 174.56 452.41 174.56 452.97C174.56 454.15 173.6 455.11 172.42 455.11C160.55 455.11 126.97 455.11 115.07 455.11C113.96 455.11 113.06 454.21 113.06 453.1C113.06 452.51 113.06 452.73 113.06 452.14C113.06 451.05 113.94 450.17 115.03 450.17C126.94 450.17 160.62 450.17 172.5 450.17Z" id="a1jnhST1J"></path><path d="M557.32 544.92C557.93 544.28 558.27 543.43 558.27 542.55C558.27 541.75 558.27 541.04 558.27 540.32C558.27 539.21 557.75 538.15 556.87 537.47C556.49 537.18 556.63 537.29 556.22 536.97C555.4 536.34 554.4 535.99 553.36 536C533.57 536.06 476.68 536.25 457.11 536.31C455.31 536.32 453.51 536.5 451.75 536.84C451.74 536.85 451.73 536.85 451.7 536.85L448.5 537.98L444.59 538.82L440.78 539.59L436.7 539.64L432.61 539.16L429.21 538.41C427.73 538.15 426.81 537.99 426.44 537.93C425.99 537.85 425.55 537.69 425.16 537.45C424.81 537.25 425.28 537.52 425.16 537.45C424.03 536.79 422.75 536.44 421.45 536.44C413.85 536.46 392.95 536.53 385.33 536.55C385.33 536.55 381.56 536.74 381.56 536.74C381.12 536.78 381.42 536.75 380.92 536.8C379.87 536.91 378.84 537.13 377.85 537.48C377.64 537.55 377.11 537.74 376.27 538.03L372.69 538.56L369.54 538.98L365.67 538.81L361.55 538.48C360.67 538.29 360.12 538.17 359.9 538.12C359.9 538.12 357.33 537.55 357.33 537.55C357.01 537.47 357.45 537.57 357.16 537.51C356.19 537.29 355.23 536.99 354.31 536.62C354.16 536.56 353.79 536.41 353.19 536.18C311.86 536.34 286.03 536.44 275.7 536.48C275.08 536.48 274.45 536.55 273.85 536.68C273.44 536.77 273.35 536.79 273 536.87C273 536.87 270.67 537.51 270.67 537.51C270.27 537.64 269.27 537.97 267.67 538.49C265.69 538.84 264.45 539.06 263.96 539.15C263.96 539.15 261.61 539.41 261.61 539.41C261.16 539.43 260.01 539.48 258.18 539.56C256.36 539.44 255.21 539.37 254.76 539.34C254.76 539.34 252.62 539.15 252.62 539.15C251.97 539.08 251.99 539.08 251.56 539.03C250.1 538.86 248.67 538.52 247.3 538C247.04 537.9 247.77 538.18 247.37 538.03C247.37 538.03 244.65 536.93 244.65 536.93C244.3 536.78 244.55 536.88 244.18 536.73C243.34 536.36 242.43 536.18 241.51 536.18C234.13 536.18 213.99 536.18 206.76 536.18C206.76 536.18 202.48 536.44 202.48 536.44C202.1 536.48 202.72 536.41 202.24 536.46C201.12 536.6 200.01 536.82 198.92 537.11C198.28 537.28 198.24 537.3 197.66 537.45C197.66 537.45 193.73 538.39 193.73 538.39C193.25 538.49 193.54 538.43 192.99 538.55C191.91 538.77 190.81 538.88 189.7 538.86C189.35 538.85 188.47 538.84 187.05 538.81C185.5 538.68 184.53 538.6 184.14 538.57C182.93 538.47 181.74 538.27 180.58 537.98C180.04 537.84 179.94 537.81 179.34 537.66C179.34 537.66 176.45 536.87 176.45 536.87C175.99 536.73 175.93 536.71 175.43 536.57C174.56 536.31 173.65 536.18 172.74 536.18C154.69 536.18 102.76 536.18 84.92 536.18C83.39 536.18 81.94 536.86 80.97 538.03C80.71 538.33 81.19 537.76 80.85 538.16C80.11 539.06 79.69 540.19 79.69 541.37C79.69 541.75 79.69 541.11 79.69 541.5C79.69 542.67 80.07 543.82 80.76 544.76C80.96 545.03 80.79 544.79 81.06 545.17C81.5 545.77 82.2 546.12 82.94 546.12C177.45 546.27 459.26 546.71 553.63 546.86C554.8 546.86 555.91 546.38 556.72 545.54C557.03 545.22 556.94 545.31 557.32 544.92Z" id="b39xeoGH3"></path><path d="M4.23 468.89C5.03 469.5 6 469.84 7 469.84C18.8 469.83 48.31 469.83 95.51 469.82L95.47 453.96C48.89 454.12 19.78 454.22 8.14 454.26C6.36 454.27 4.64 454.93 3.31 456.11C2.93 456.44 3.72 455.74 3.3 456.11C2.11 457.17 1.43 458.69 1.43 460.29C1.43 461.58 1.44 462.64 1.44 463.86C1.45 465.68 2.29 467.39 3.73 468.5C4.07 468.77 3.68 468.46 4.23 468.89Z" id="b4kh81rTWO"></path><path d="M152.7 514.54C153.53 516.97 154.53 519.34 155.71 521.63C155.98 522.14 155.36 520.94 155.71 521.63C156.6 523.34 157.72 524.93 159.06 526.33C159.61 526.9 159.34 526.63 159.92 527.23C161.18 528.55 162.57 529.74 164.07 530.78C164.6 531.14 164.44 531.03 165.1 531.49C166.17 532.23 167.33 532.86 168.54 533.36C169.29 533.68 171.18 534.46 174.2 535.71C177.34 536.79 179.31 537.46 180.09 537.72C181.15 538.09 182.24 538.31 183.35 538.4C184.88 538.52 187.83 538.75 189.37 538.87C190.44 538.95 191.52 538.89 192.58 538.68C193.9 538.41 195.35 538.13 196.43 537.91C198.27 537.54 200.08 537.02 201.84 536.37C202.77 536.02 202.65 536.06 203.52 535.74C205.49 534.99 207.35 533.96 209.01 532.66C209.55 532.24 210.91 531.19 213.07 529.51C214.75 527.88 215.8 526.87 216.22 526.46C217.76 524.97 219.1 523.29 220.21 521.46C220.61 520.81 219.88 522.01 220.21 521.46C221.53 519.29 222.55 516.96 223.26 514.53C223.41 514.02 223.79 512.75 224.38 510.71C224.73 508.74 224.94 507.5 225.03 507.01C225.45 504.62 225.54 502.19 225.31 499.78C225.24 498.97 225.38 500.51 225.31 499.78C225.06 497.1 224.56 494.45 223.82 491.86C223.6 491.1 223.95 492.33 223.71 491.48C223.06 489.22 222.19 487.04 221.1 484.96C220.69 484.2 221.26 485.28 220.89 484.58C219.7 482.3 218.22 480.19 216.49 478.28C215.98 477.72 216.66 478.47 216.05 477.8C214.66 476.27 213.14 474.85 211.5 473.58C210.64 472.9 210.2 472.56 209.26 471.83C207.87 470.75 206.38 469.8 204.81 469.01C203.71 468.46 203.39 468.29 202.45 467.82C200.38 466.77 198.15 466.1 195.86 465.82C194.37 465.64 192.95 465.46 191.36 465.27C189.41 465.03 187.45 464.98 185.49 465.12C184.07 465.22 183.8 465.24 182.64 465.33C179.83 465.53 177.07 466.2 174.48 467.31C173.48 467.74 173.18 467.87 171.87 468.43C170.27 469.12 168.75 470 167.35 471.05C166.46 471.72 166.13 471.96 165.3 472.59C163.69 473.79 162.22 475.16 160.91 476.68C160.14 477.58 159.9 477.85 159.16 478.71C157.75 480.33 156.55 482.12 155.57 484.02C155.1 484.95 155.19 484.77 154.73 485.68C153.72 487.64 152.94 489.71 152.39 491.85C152.26 492.37 151.92 493.67 151.39 495.75C151.17 497.31 151.03 498.29 150.97 498.68C150.52 501.82 150.53 505.01 151 508.14C151.08 508.66 150.86 507.2 151 508.14C151.26 509.85 151.67 511.54 152.23 513.17C152.57 514.18 152.43 513.78 152.7 514.54Z" id="d68brkutV7"></path><path d="M176.69 518.92C177.96 519.69 178.76 520.17 179.08 520.36C179.98 520.91 180.95 521.31 181.98 521.55C182.67 521.71 181.67 521.47 181.98 521.55C184.29 522.09 186.66 522.37 189.04 522.37C189.46 522.37 188.68 522.37 189.49 522.37C190.61 522.37 191.72 522.2 192.78 521.87C193.47 521.66 192.46 521.97 192.78 521.87C195.04 521.17 197.18 520.11 199.09 518.73C199.34 518.55 198.51 519.15 199.09 518.73C199.92 518.13 200.7 517.48 201.44 516.77C201.87 516.35 201.64 516.57 201.97 516.25C203.05 515.2 204.04 514.08 204.95 512.89C205.25 512.5 204.68 513.25 204.95 512.89C205.94 511.6 206.7 510.15 207.2 508.6C207.33 508.22 207.05 509.07 207.2 508.6C207.62 507.34 207.91 506.04 208.07 504.72C208.14 504.17 208.02 505.11 208.07 504.72C208.3 502.89 208.35 501.05 208.23 499.22C208.21 498.86 208.27 499.77 208.23 499.22C208.16 498.04 207.92 496.87 207.52 495.76C207.31 495.15 207.33 495.21 207.13 494.66C206.68 493.37 206.04 492.15 205.23 491.04C204.93 490.63 205.28 491.11 204.99 490.71C204.15 489.55 203.2 488.47 202.15 487.49C201.69 487.06 201.62 486.99 201.1 486.5C200.26 485.71 199.36 485 198.41 484.37C197.93 484.05 198.36 484.33 197.99 484.09C196.68 483.21 195.2 482.62 193.64 482.36C192.95 482.24 192.78 482.21 191.97 482.07C190.79 481.87 189.58 481.79 188.38 481.84C187.74 481.87 187.17 481.89 186.42 481.92C185.58 481.95 184.75 482.07 183.94 482.25C183.24 482.41 182.53 482.57 181.87 482.73C180.92 482.94 180.02 483.33 179.2 483.86C178.8 484.12 177.8 484.77 176.2 485.81C175.09 486.78 174.4 487.38 174.12 487.62C173.47 488.19 172.9 488.84 172.42 489.55C172.18 489.89 171.61 490.75 170.68 492.12C169.87 493.78 169.37 494.81 169.16 495.23C168.8 495.97 168.55 496.78 168.44 497.6C168.34 498.36 168.24 499.04 168.15 499.71C168 500.82 167.96 501.94 168.04 503.06C168.06 503.42 168.12 504.3 168.22 505.71C168.29 506.41 168.33 506.85 168.35 507.02C168.52 508.7 169.03 510.32 169.84 511.79C170.01 512.09 169.76 511.64 170.05 512.16C170.47 512.92 170.95 513.64 171.48 514.33C171.81 514.75 171.32 514.12 171.48 514.33C172.58 515.74 173.89 516.97 175.36 517.99C175.54 518.12 175.98 518.43 176.69 518.92Z" id="d2io22mo9"></path><path d="M185.79 509.22C187.09 509.49 188.42 509.59 189.75 509.52C190.07 509.51 189.35 509.54 189.75 509.52C190.79 509.47 191.8 509.13 192.67 508.55C192.91 508.39 192.4 508.73 192.67 508.55C193.48 508.01 194.19 507.35 194.78 506.58C195 506.3 194.6 506.81 194.78 506.58C195.48 505.67 195.96 504.6 196.16 503.47C196.22 503.17 196.1 503.82 196.16 503.47C196.34 502.49 196.29 501.47 196.01 500.51C195.9 500.13 196.1 500.8 196.01 500.51C195.65 499.25 195.04 498.06 194.23 497.02C194 496.74 194.4 497.25 194.14 496.92C193.47 496.06 192.54 495.43 191.48 495.14C191.05 495.02 191.4 495.12 190.97 495C189.88 494.7 188.74 494.59 187.6 494.66C187.17 494.69 187.08 494.7 186.52 494.74C185.82 494.78 185.14 494.98 184.52 495.3C184.21 495.46 184.71 495.2 184.52 495.3C183.51 495.84 182.63 496.59 181.94 497.51C181.77 497.74 182.15 497.23 181.94 497.51C181.38 498.27 180.99 499.15 180.8 500.08C180.74 500.36 180.83 499.94 180.76 500.26C180.6 501.07 180.51 501.88 180.49 502.7C180.48 503.08 180.5 502.46 180.49 502.7C180.45 503.94 180.82 505.15 181.53 506.16C181.65 506.33 181.31 505.85 181.53 506.16C181.93 506.73 182.4 507.25 182.93 507.7C183.22 507.95 183.03 507.79 183.26 507.98C183.98 508.59 184.84 509.02 185.76 509.21C186.16 509.29 185.5 509.16 185.79 509.22Z" id="bOrJRHyl"></path><path d="M220.39 481.97L221.34 483.85L222.55 486.06L223.21 488.49L224.27 491.17L224.76 493.33L225.27 496L225.76 498.89L225.93 502.16L225.75 505.32L225.35 508.8L224.8 511.89L223.43 516.6C223.98 518 224.31 518.88 224.45 519.24C224.76 520.05 225.14 520.83 225.57 521.58C225.87 522.1 225.69 521.8 225.89 522.13C226.68 523.5 227.6 524.78 228.63 525.97C228.91 526.29 228.64 525.98 229.03 526.43C229.03 526.43 231.13 528.54 231.13 528.54C231.68 529.03 232.12 529.42 232.65 529.88C233.46 530.6 234.32 531.25 235.23 531.84C235.63 532.1 236.62 532.74 238.2 533.77L242.86 536.1C244.73 536.91 245.9 537.42 246.36 537.62C246.76 537.79 247.18 537.93 247.6 538.04C248.38 538.24 249.84 538.61 250.56 538.79C251.2 538.96 251.84 539.07 252.5 539.13C253.37 539.21 254.98 539.37 255.85 539.45C255.85 539.45 257.84 539.52 257.84 539.52C258.77 539.5 260.57 539.46 261.5 539.43C261.5 539.43 263.5 539.25 263.5 539.25C264.26 539.13 265.45 538.95 266.18 538.83C266.91 538.71 267.63 538.54 268.33 538.31C268.76 538.16 269.86 537.8 271.61 537.21C273.25 536.55 274.29 536.14 274.7 535.98C275.62 535.61 276.51 535.16 277.37 534.65C277.72 534.43 278.61 533.9 280.04 533.04C281.27 532.15 282.03 531.59 282.34 531.37C283.05 530.86 283.73 530.29 284.37 529.68C284.66 529.4 285.39 528.69 286.56 527.56C287.6 526.48 288.24 525.8 288.5 525.53C288.5 525.53 289.95 523.8 289.95 523.8C290.23 523.41 290.41 523.16 290.69 522.77C290.69 522.77 291.89 520.87 291.89 520.87C292.15 520.38 292.08 520.51 292.26 520.18C292.9 519 293.41 517.76 293.79 516.48C293.87 516.24 294.04 515.64 294.33 514.68C294.54 513.89 294.67 513.39 294.72 513.19C295.17 511.45 295.47 509.67 295.59 507.88C295.61 507.64 295.62 507.57 295.67 506.82C295.67 506.82 295.69 506.56 295.69 506.56C295.72 505.97 295.79 504.48 295.91 502.1L231.6 501.82L231.35 497.94L230.96 494.39L230.39 491.39C230.13 490.26 229.97 489.56 229.91 489.27C229.78 488.73 229.62 488.19 229.41 487.67C229.31 487.41 229.06 486.76 228.65 485.72L227.45 482.92L226.12 480.25L219.25 480.25L220.39 481.97Z" id="a6oOYk9FO"></path><path d="M329.55 480.82L328.36 483.17L327.18 485.88L326.11 488.83L325.17 492.01L324.33 495.63L324.33 498.58L324.33 501.23L232.4 501.23L232.4 499.58L232.2 497.62L232.05 495.82L231.7 493.57L231.3 491.52L230.75 489.27L230 486.86L228.9 484.46L227.9 482.31L226.85 480.25L329.55 480.82Z" id="a37nsE5XlL"></path><path d="M325.1 495.64L325.77 492.89L326.61 489.92L327.5 487.22L328.55 484.67L329.32 482.83L330.29 480.82L336.68 480.83L336.21 481.3C336.01 481.55 335.88 481.7 335.83 481.76C335.24 482.47 334.73 483.23 334.29 484.04C334.2 484.2 333.98 484.61 333.62 485.27L332.47 487.84L331.58 490.15L330.82 493.25L330.51 496.11C330.48 497.21 330.46 497.91 330.45 498.18C330.44 498.63 330.06 498.98 329.62 498.96C329.48 498.96 329.15 498.95 328.61 498.93L326.83 498.93L325.02 498.93L325.1 495.64Z" id="bD7UX6wwU"></path><path d="M334.18 486.33C333.34 487.98 332.66 489.71 332.14 491.49C332.05 491.81 332.29 490.97 332.14 491.51C331.84 492.56 331.64 493.64 331.55 494.72C331.4 496.45 331.15 499.36 331.02 500.93C330.88 502.55 330.88 504.18 331.03 505.8C331.12 506.86 331.09 506.53 331.16 507.33C331.39 509.82 331.99 512.27 332.95 514.59C333.25 515.31 333.38 515.63 333.85 516.76C333.85 516.76 335.24 519.59 335.24 519.59C335.76 520.49 336.35 521.51 336.82 522.33C337.49 523.5 338.26 524.61 339.12 525.65C339.77 526.45 340.62 527.48 341.32 528.33C342.04 529.2 342.86 529.98 343.77 530.64C344.73 531.35 346.3 532.5 347.28 533.22C348.13 533.84 349.05 534.36 350.02 534.76C351.25 535.27 353.58 536.24 354.84 536.77C355.72 537.14 356.65 537.42 357.59 537.62C358.55 537.82 360.17 538.15 361.17 538.36C362 538.53 362.84 538.63 363.69 538.67C364.96 538.73 367.49 538.84 368.76 538.9C369.6 538.94 370.44 538.87 371.27 538.71C372.34 538.5 374.45 538.07 375.55 537.85C375.55 537.85 377.63 537.31 377.63 537.31C378.7 536.97 380.44 536.41 381.39 536.1C382.46 535.76 383.49 535.31 384.47 534.77C385.3 534.31 386.29 533.76 387.12 533.3C388.12 532.75 389.07 532.1 389.95 531.37C390.79 530.67 392.18 529.51 393.07 528.77C393.07 528.77 395.1 526.82 395.1 526.82C395.81 526.04 396.63 525.13 397.25 524.44C398.17 523.43 398.97 522.31 399.63 521.11C400.09 520.29 400.59 519.37 401.08 518.49C401.08 518.49 402.56 515.39 402.56 515.39C402.91 514.54 403.36 513.44 403.72 512.55C404.1 511.63 404.38 510.67 404.56 509.69C404.74 508.74 404.85 508.17 404.99 507.42C405.29 505.77 405.45 504.09 405.45 502.41C405.45 501.56 405.45 500.53 405.45 499.42C405.45 498.59 405.38 497.76 405.23 496.94C405.04 495.87 404.71 494 404.53 492.96C404.37 492.06 404.13 491.17 403.83 490.31C403.5 489.39 403.05 488.14 402.74 487.27C402.36 486.23 401.88 485.22 401.29 484.28C401 483.82 400.28 482.67 399.12 480.82L337.9 480.82C337.33 481.48 336.98 481.89 336.84 482.05C336.07 482.96 335.4 483.94 334.86 485C334.47 485.76 334.48 485.74 334.18 486.33Z" id="a3bSgvMlJ"></path><path d="M377.83 481.47C378.81 482 379.43 482.33 379.67 482.46C380.46 482.88 381.19 483.39 381.85 483.98C382.21 484.3 382.3 484.38 382.66 484.7C382.66 484.7 384.44 486.5 384.44 486.5C384.72 486.82 384.66 486.75 384.92 487.06C385.53 487.76 386.08 488.51 386.59 489.29C386.88 489.75 387.1 490.09 387.41 490.58C387.85 491.26 388.23 491.98 388.56 492.72C388.71 493.04 389.07 493.84 389.64 495.12C389.92 496.05 390.09 496.64 390.16 496.87C390.55 498.18 390.74 499.54 390.74 500.91C390.74 501.33 390.74 501.05 390.74 501.6C390.74 502.53 390.68 503.46 390.54 504.38C390.48 504.82 390.58 504.1 390.54 504.38C390.33 505.83 389.97 507.26 389.49 508.65C389.43 508.81 389.29 509.22 389.06 509.86C388.65 510.68 388.39 511.19 388.29 511.39C387.83 512.3 387.3 513.18 386.7 514.01C386.6 514.16 386.34 514.53 385.91 515.12L383.92 517.54C383.32 518.22 382.95 518.65 382.8 518.82C382.21 519.5 381.57 520.12 380.87 520.68C380.62 520.88 381.08 520.52 380.87 520.68C380.04 521.35 379.13 521.92 378.17 522.38C377.92 522.5 378.46 522.24 378.17 522.38C377.32 522.79 376.43 523.12 375.51 523.38C375.19 523.47 375.79 523.3 375.51 523.38C374.43 523.68 373.34 523.91 372.23 524.05C372.01 524.07 371.46 524.14 370.59 524.26L367.12 524.26C365.91 524.12 365.15 524.04 364.85 524C363.85 523.89 362.86 523.69 361.89 523.4C361.71 523.34 361.27 523.21 360.56 523C359.85 522.67 359.4 522.46 359.23 522.38C358.23 521.92 357.29 521.34 356.44 520.65C356.29 520.53 355.91 520.22 355.31 519.74L352.74 517.54L350.43 515.12C349.85 514.42 349.49 513.98 349.35 513.81C348.78 513.11 348.26 512.37 347.8 511.58C347.61 511.24 347.62 511.27 347.4 510.89C347.01 510.21 346.68 509.49 346.41 508.74C346.26 508.3 346.25 508.26 346.11 507.86C345.8 507 345.62 506.11 345.55 505.2C345.53 504.9 345.48 504.17 345.39 503L345.65 498.85L346.44 495.12L348.17 491.6L350.32 488.24L352.74 485.72L355.73 483.26L358.62 481.47L377.83 481.47Z" id="c3cjhvshK"></path><path d="M360.57 500.84C360.68 499.56 361.13 498.34 361.88 497.3C361.95 497.2 361.65 497.61 361.88 497.3C362.12 496.97 362.4 496.66 362.7 496.4C363.04 496.11 362.61 496.48 362.7 496.4C363.78 495.45 365.14 494.88 366.57 494.77C366.92 494.74 366.35 494.79 366.85 494.75C367.82 494.67 368.8 494.68 369.77 494.77C370.21 494.81 369.55 494.75 369.86 494.78C371.23 494.91 372.51 495.52 373.47 496.51C373.63 496.69 373.17 496.21 373.47 496.51C374.02 497.09 374.5 497.73 374.89 498.43C375.07 498.76 375.08 498.78 375.28 499.13C375.63 499.76 375.83 500.46 375.87 501.17C375.89 501.5 375.9 501.59 375.92 501.96C375.96 502.54 375.91 503.11 375.78 503.67C375.69 504.09 375.82 503.5 375.78 503.67C375.47 505.03 374.71 506.24 373.63 507.11C373.2 507.45 373.76 507 373.38 507.31C372.15 508.29 370.63 508.85 369.05 508.9C368.92 508.91 368.59 508.92 368.07 508.94C367.17 508.91 366.6 508.89 366.38 508.88C365.09 508.84 363.86 508.32 362.94 507.41C362.6 507.08 362.85 507.32 362.47 506.95C361.69 506.18 361.15 505.2 360.9 504.12C360.81 503.74 360.87 503.99 360.77 503.55C360.57 502.66 360.5 501.75 360.57 500.84C360.61 500.45 360.55 501.12 360.57 500.84Z" id="aaDEtGr7L"></path><path d="M406.32 480.85L408.38 486.11C408.7 486.96 408.9 487.49 408.98 487.7C408.98 487.7 409.76 489.72 409.76 489.72C409.83 489.91 410.01 490.38 410.3 491.14C410.55 491.79 410.7 492.19 410.76 492.36C411 493.01 411.2 493.69 411.35 494.38C411.39 494.57 411.5 495.06 411.66 495.84C411.79 496.81 411.87 497.42 411.9 497.66C411.97 498.28 412.01 498.89 411.99 499.51C411.98 499.79 411.96 500.5 411.93 501.62L475.62 501.62L475.62 503.92C475.62 504.64 475.62 505.08 475.62 505.26C475.62 505.94 475.56 506.62 475.45 507.29C475.41 507.52 475.31 508.09 475.15 509.01L474.49 511.93L473.45 514.99L472.28 517.81L470.82 520.77L469.12 523.55L467.1 526.02L464.56 528.82C463.6 529.69 463 530.23 462.76 530.45C462.05 531.09 461.29 531.67 460.48 532.2C460.23 532.36 459.6 532.77 458.58 533.43C457.43 534.12 456.72 534.54 456.43 534.71C455.5 535.26 454.54 535.75 453.54 536.16C453.34 536.24 452.84 536.45 452.04 536.78L448.9 537.85L445.46 538.68C444.82 538.83 444.42 538.92 444.26 538.96C442.93 539.27 441.58 539.45 440.22 539.5C439.97 539.51 439.34 539.53 438.33 539.57L435.23 539.42L432.19 538.99L429.14 538.34L426.44 537.62L423.54 536.57C422.58 536.29 421.97 536.11 421.73 536.04C421.17 535.87 420.62 535.65 420.1 535.39C419.93 535.3 419.5 535.09 418.82 534.75L416.79 533.43L414.67 531.78L412.55 529.92L410.6 527.88C409.8 527.04 409.29 526.51 409.09 526.3C408.91 526.11 408.74 525.91 408.59 525.69C408.39 525.39 407.87 524.63 407.04 523.43C406.31 522.29 405.86 521.58 405.68 521.29C405.38 520.83 405.18 520.31 405.07 519.77C404.98 519.31 404.75 518.16 404.39 516.32L402.94 516.28L404.2 513.63L405.23 511.13L405.58 508.32L406.22 505.48L406.29 502.34L406.26 499.4L406.01 496.5L405.64 494.21L405.12 491.51L404.21 488.7L403.23 486.15L401.85 483.42L400.16 480.82L406.32 480.85Z" id="b12lwsg8Bu"></path><path d="M460.59 482.76C460.96 483.07 461.3 483.42 461.6 483.79C461.86 484.1 462.22 484.54 462.48 484.86C462.76 485.2 462.97 485.58 463.11 486C463.28 486.52 463.56 487.35 463.72 487.84C463.89 488.34 463.98 488.86 463.98 489.38C463.98 489.83 463.98 490.43 463.98 490.9C463.98 491.4 463.91 491.9 463.77 492.38C463.65 492.84 463.43 493.64 463.29 494.14C463.18 494.51 463.03 494.87 462.84 495.2C462.6 495.6 462.14 496.38 461.9 496.8C461.75 497.04 461.58 497.27 461.4 497.49C461.07 497.87 460.43 498.61 460.12 498.97C459.88 499.25 459.6 499.48 459.29 499.66C458.91 499.89 458.29 500.25 457.92 500.47C457.57 500.67 457.18 500.78 456.78 500.78C450.91 500.78 436.25 500.78 412.78 500.78C412.83 499.73 412.86 499.07 412.87 498.81C412.89 498.36 412.86 497.91 412.79 497.46C412.74 497.12 412.6 496.25 412.38 494.87L411.31 491.16L409.79 487.39L408.44 483.97L407.23 480.82C434.63 481.2 451.76 481.44 458.61 481.54C458.96 481.54 459.3 481.67 459.56 481.89C459.88 482.16 460.3 482.52 460.59 482.76Z" id="dB8wrwRzD"></path><path d="M462.32 497.57C462.89 496.82 463.36 496 463.72 495.14C463.87 494.78 463.72 495.14 463.85 494.81C464.27 493.83 464.55 492.79 464.69 491.73C464.73 491.39 464.68 491.83 464.73 491.45C464.85 490.51 464.83 489.56 464.67 488.63C464.59 488.18 464.6 488.2 464.52 487.74C464.37 486.86 464.07 486.02 463.64 485.23C463.46 484.91 463.46 484.89 463.25 484.51C462.92 483.92 462.49 483.39 461.98 482.94C461.77 482.76 461.24 482.29 460.38 481.55C499.9 481.55 524.59 481.55 534.47 481.55C534.47 481.55 536.75 481.67 536.75 481.67C537.42 481.74 538.16 481.82 538.79 481.89C539.64 481.98 540.45 482.25 541.18 482.69C541.49 482.87 541.24 482.72 541.54 482.9C542.33 483.37 542.98 484.05 543.42 484.86C543.65 485.29 543.48 484.98 543.67 485.32C544.27 486.45 544.67 487.67 544.85 488.94C544.91 489.34 544.8 488.56 544.85 488.94C545.04 490.29 545.03 491.66 544.82 493C544.77 493.3 544.85 492.76 544.78 493.21C544.65 494.04 544.36 494.85 543.93 495.58C543.66 496.05 543.42 496.46 543.13 496.95C542.75 497.59 542.26 498.15 541.68 498.6C541.19 498.97 540.57 499.44 540.08 499.83C539.53 500.25 538.92 500.59 538.27 500.84C537.74 501.04 536.97 501.34 536.4 501.56C535.88 501.76 535.33 501.86 534.78 501.85C525.53 501.76 502.4 501.51 465.39 501.11L458.3 500.92C459.28 500.27 459.9 499.86 460.14 499.7C460.88 499.22 461.53 498.61 462.06 497.91C462.28 497.61 462.11 497.85 462.32 497.57Z" id="a2m7rtyv7n"></path><path d="M150.42 495.65L151.04 493.43L151.73 490.56L152.74 487.79L153.94 485.18L155.26 482.61L156.6 480.5L150.99 480.5L150.11 482.54L148.82 485.1L147.58 487.65C147.06 488.72 146.75 489.39 146.62 489.66C146.43 490.06 146.26 490.48 146.13 490.9C146.04 491.2 145.81 491.93 145.44 493.11L144.79 496.2L144.49 498.44L150.01 498.44L150.42 495.65Z" id="cvAopgfjX"></path><path d="M89.84 502.68C89.46 501.86 89.26 500.96 89.26 500.06C89.26 498.11 89.26 493.83 89.26 491.93C89.26 490.86 89.46 489.79 89.85 488.79C89.99 488.42 89.9 488.67 90.06 488.26C90.39 487.39 90.95 486.62 91.67 486.02C92.06 485.7 92.16 485.62 92.56 485.29C93.26 484.7 94.14 484.39 95.05 484.39C101.77 484.39 120.87 484.39 127.68 484.39C128.3 484.39 128.91 484.56 129.44 484.88C129.76 485.07 129.6 484.97 129.85 485.12C130.61 485.58 131.24 486.24 131.66 487.04C131.79 487.29 131.58 486.89 131.72 487.16C132.12 487.91 132.32 488.74 132.32 489.58C132.32 492.03 132.32 498.39 132.32 500.91C132.32 501.51 132.15 502.1 131.81 502.61C131.55 503 131.36 503.3 131.12 503.66C130.71 504.27 130.2 504.8 129.61 505.23C129.41 505.37 129.6 505.23 129.37 505.39C128.89 505.74 128.31 505.92 127.71 505.92C120.9 505.92 101.71 505.92 94.98 505.92C94.1 505.92 93.24 505.71 92.46 505.29C92.08 505.09 92.27 505.19 91.93 505.01C91.05 504.53 90.34 503.78 89.92 502.87C89.79 502.58 89.98 503 89.84 502.68Z" id="becQyeZOM"></path><path d="M120.29 483.42L124.01 483.42L127.27 483.42C128.04 483.53 128.52 483.59 128.71 483.62C129.03 483.66 129.34 483.76 129.62 483.92C129.88 484.07 130.28 484.29 130.55 484.45C130.8 484.59 131.03 484.77 131.22 484.99C131.47 485.28 131.9 485.78 132.15 486.06C132.38 486.32 132.55 486.63 132.66 486.96C132.77 487.31 132.94 487.81 133.05 488.15C133.17 488.5 133.23 488.87 133.23 489.24C133.23 490.56 133.23 493.85 133.23 499.11L133.23 501.55L143.31 501.48L143.38 499.63L143.71 497.05L144.2 494.38L144.84 491.67L145.68 489.37L147.05 486.46L148.55 483.49L149.89 480.51C123.64 480.25 107.23 480.09 100.67 480.03C99.99 480.02 99.32 480.26 98.8 480.71C98.37 481.08 97.3 482.01 95.58 483.49L120.29 483.42Z" id="b2i7QXMKhN"></path><path d="M91.56 422.57C90.83 422.99 90.16 423.51 89.58 424.12C89.43 424.28 89.76 423.93 89.58 424.12C89.09 424.64 88.82 425.32 88.83 426.04C88.86 430.84 88.96 444.23 89 449.06C89 449.69 89.26 450.28 89.72 450.71C89.97 450.94 90.05 451.01 90.31 451.25C90.75 451.66 91.25 452.01 91.79 452.28C92.07 452.42 92.17 452.47 92.47 452.62C92.96 452.87 93.51 453.01 94.06 453.03C94.54 453.05 95.35 453.08 95.88 453.1C96.25 453.11 96.63 453.09 97 453.02C97.27 452.98 96.89 453.04 97 453.02C97.83 452.88 98.52 452.31 98.81 451.52C98.93 451.23 99.02 450.97 99.19 450.51C99.31 450.2 99.37 449.87 99.37 449.53C99.34 444.31 99.25 429.42 99.22 424.27C99.22 423.73 99.04 423.2 98.72 422.76C98.53 422.49 98.78 422.84 98.67 422.69C98.09 421.9 97.17 421.43 96.18 421.43C95.95 421.43 96.49 421.43 96.17 421.43C95.43 421.43 94.69 421.51 93.96 421.68C93.69 421.74 94.02 421.66 93.77 421.72C92.99 421.9 92.25 422.19 91.56 422.57C91.34 422.7 91.77 422.46 91.56 422.57Z" id="d1ibHDC024"></path><path d="M98.38 479.9C98.56 479.78 98.68 479.71 98.73 479.68C99.38 479.27 100.14 479.06 100.91 479.07C108.41 479.14 127.18 479.31 157.2 479.59L158.87 477.54L161.67 474.45C163.09 473.25 163.99 472.5 164.34 472.21C165.18 471.5 166.07 470.86 167 470.28C167.73 469.83 168.41 469.41 169.11 468.98C170.14 468.34 171.22 467.8 172.34 467.35C173.45 466.92 174.48 466.51 175.43 466.13C177.06 465.49 178.76 465.06 180.49 464.85C181.73 464.69 182.02 464.66 183.06 464.53C185.48 464.23 187.92 464.19 190.34 464.42C190.83 464.47 192.04 464.59 194 464.77C196.76 465.3 198.49 465.62 199.18 465.76C200.09 465.93 200.98 466.21 201.83 466.6C202.75 467.02 203.81 467.5 204.62 467.87C205.82 468.42 206.97 469.09 208.04 469.85C208.44 470.14 209.44 470.85 211.04 471.99C211.91 472.7 212.46 473.14 212.67 473.32C214.2 474.55 215.61 475.92 216.9 477.4C217.16 477.69 217.79 478.42 218.81 479.59L248.69 479.47C248.69 401.68 248.69 353.06 248.69 333.61C248.69 332.55 248.55 331.49 248.27 330.47C248.1 329.83 247.98 329.41 247.81 328.76C247.54 327.78 247.1 326.84 246.52 326C246.22 325.55 246.38 325.79 246.13 325.42C245.38 324.33 244.44 323.39 243.35 322.64C242.97 322.38 242.93 322.36 242.41 322C241.77 321.56 241.01 321.32 240.23 321.32C231.42 321.32 209.39 321.32 174.15 321.32C172.44 321.32 171.38 321.32 170.95 321.32C169.55 321.32 168.17 321.57 166.86 322.04C166.41 322.2 167.25 321.89 166.86 322.04C165.36 322.58 163.92 323.28 162.58 324.14C162 324.5 162.52 324.17 162 324.51C160.47 325.48 159.03 326.6 157.7 327.85C157.33 328.2 158.1 327.47 157.7 327.85C156.46 329.01 155.32 330.28 154.29 331.64C142.84 346.69 109.72 390.27 98.19 405.44C97.45 406.41 96.83 407.47 96.33 408.59C96.25 408.77 96.48 408.25 96.33 408.59C96.07 409.19 95.9 409.84 95.83 410.49C95.81 410.72 95.75 411.29 95.66 412.2L95.66 420.68C95.76 420.68 95.83 420.68 95.85 420.68C96.74 420.68 97.61 420.89 98.4 421.28C98.5 421.33 98.16 421.16 98.4 421.28C98.72 421.44 98.99 421.69 99.17 422C99.35 422.29 99.21 422.05 99.28 422.19C99.78 423.02 100.05 423.96 100.06 424.93C100.08 427.88 100.14 435.26 100.24 447.06C100.27 447.95 100.29 448.51 100.3 448.74C100.34 449.93 100.09 451.11 99.58 452.18C99.52 452.33 99.74 451.86 99.58 452.18C99.36 452.65 99.03 453.05 98.62 453.35C98.43 453.5 98.75 453.26 98.62 453.35C98 453.83 97.23 454.08 96.45 454.08C96.2 454.08 96.61 454.08 96.35 454.08C95.72 454.08 95.21 454.59 95.21 455.22C95.21 458.92 95.21 468.16 95.21 482.94L98.38 479.9Z" id="abeQr3miv"></path><path d="M245.92 323.77C246.37 324.21 246.76 324.7 247.1 325.23C247.29 325.52 247.16 325.33 247.3 325.55C247.78 326.3 248.17 327.11 248.46 327.95C248.55 328.24 248.52 328.13 248.64 328.49C248.84 329.08 249 329.68 249.11 330.29C249.18 330.64 249.13 330.41 249.18 330.67C249.35 331.58 249.44 332.5 249.44 333.42C249.47 352.91 249.53 401.61 249.64 479.53L265.18 479.53C263.86 478.56 263.04 477.96 262.71 477.71C261.97 477.17 261.28 476.55 260.65 475.88C260.36 475.57 260.41 475.63 260.11 475.32C259.51 474.68 259.03 473.92 258.71 473.11C258.51 472.59 258.33 472.13 258.11 471.58C257.83 470.87 257.69 470.11 257.69 469.35C257.69 449.61 257.69 400.27 257.69 321.32L242.25 321.32C243.38 321.96 244.09 322.35 244.37 322.51C244.79 322.75 245.18 323.04 245.53 323.38C245.74 323.59 245.74 323.59 245.92 323.77Z" id="duuDmVYJ4"></path><path d="M258.28 466.19C258.29 468.18 258.63 470.15 259.3 472.02C259.59 472.85 259.22 471.81 259.45 472.46C260.3 474.86 261.92 476.92 264.05 478.31C264.57 478.64 263.63 478.03 264.35 478.5C265.83 479.47 267.56 479.98 269.32 479.99C294.78 480.08 358.41 480.32 460.22 480.71C497.59 480.79 520.95 480.84 530.29 480.86C532.72 480.87 535.08 480.03 536.96 478.49C537.65 477.92 536.6 478.78 537.24 478.26C539.31 476.56 540.86 474.31 541.7 471.77C541.94 471.06 541.44 472.55 541.7 471.77C542.48 469.43 542.87 466.98 542.85 464.51C542.61 430.28 541.89 330.52 541.64 296.09C541.63 294.33 541.02 292.63 539.92 291.26C539.61 290.87 540.03 291.39 539.63 290.89C538.8 289.86 537.74 289.04 536.54 288.51C536.02 288.28 536.39 288.44 535.89 288.22C534.61 287.65 533.23 287.36 531.84 287.36C497.55 287.34 411.83 287.29 274.68 287.22C272.28 287.26 270.78 287.29 270.18 287.3C268.06 287.34 265.96 287.79 264.01 288.63C263.21 288.97 264.5 288.42 263.88 288.68C261.45 289.73 259.58 291.77 258.74 294.29C258.55 294.86 259 293.5 258.74 294.29C258.11 296.2 257.79 298.2 257.8 300.21C257.9 334.01 258.18 432.39 258.28 466.19Z" id="hER45EzqO"></path><path d="M386.24 287.21L386.95 480.37L320.91 480.14L321.21 287.17L386.24 287.21Z" id="b4hpyoJu2L"></path><path d="M263.54 289.21C261 290.36 259.15 292.62 258.51 295.33C258.36 295.99 258.7 294.54 258.49 295.42C257.99 297.57 257.74 299.77 257.74 301.97C257.73 335.53 257.69 434.29 257.68 468.2C257.68 469.22 257.82 470.24 258.08 471.23C258.15 471.48 258 470.94 258.08 471.23C258.3 472.04 258.6 472.82 258.98 473.57C259.17 473.94 258.95 473.51 259.09 473.78C259.65 474.87 260.44 475.82 261.4 476.58C262.05 477.1 263.69 478.4 266.32 480.47L320.91 480.79L321.19 287.18C294.13 287.31 277.21 287.39 270.45 287.42C268.48 287.43 266.53 287.85 264.74 288.67C263.69 289.14 264.32 288.85 263.54 289.21Z" id="eaZQDiqhE"></path><path d="M386.99 480.4C410.4 480.47 425.03 480.52 430.88 480.54C433.12 480.55 435.31 479.92 437.21 478.73C437.97 478.25 437 478.86 437.67 478.44C439.82 477.08 441.48 475.08 442.41 472.71C442.62 472.18 442.13 473.44 442.41 472.71C443.11 470.95 443.46 469.06 443.45 467.17C443.25 432.98 442.68 332.95 442.48 298.67C442.47 297.05 442.27 295.43 441.88 293.85C441.7 293.14 441.95 294.15 441.83 293.63C441.3 291.51 439.99 289.66 438.15 288.46C437.78 288.22 438.35 288.59 437.68 288.16C436.78 287.57 435.73 287.26 434.65 287.25C428.19 287.25 412.05 287.23 386.22 287.2L386.99 480.4Z" id="a17TfhQ1Bl"></path><path d="M440.72 291.03C440.9 291.28 441.05 291.56 441.17 291.85C441.41 292.49 441.27 292.12 441.34 292.3C442.05 294.11 442.41 296.04 442.43 297.99C442.56 320.41 442.9 376.47 443.45 466.16C443.42 467.37 443.4 468.12 443.4 468.42C443.4 468.42 443.35 469.08 443.35 469.08C443.3 469.59 443.36 469.02 443.35 469.08C443.17 470.76 442.67 472.4 441.89 473.9C441.8 474.08 442.13 473.44 441.89 473.9C441.57 474.51 441.21 475.09 440.79 475.63C440.52 476 440.76 475.68 440.6 475.89C439.82 476.92 438.85 477.77 437.74 478.41C437.17 478.74 435.74 479.57 433.45 480.88L472.84 481.01C473.76 480.3 474.34 479.85 474.57 479.68C476.59 478.11 478.34 476.22 479.76 474.09C479.91 473.87 479.33 474.73 479.76 474.09C480.25 473.36 480.62 472.55 480.84 471.69C481.03 470.96 480.96 471.25 481.07 470.82C481.55 468.98 481.79 467.07 481.78 465.17C481.58 431.41 480.99 332.1 480.79 298.12C480.79 296.97 480.57 295.83 480.16 294.76C479.87 294 479.76 293.7 479.5 293.03C478.98 291.67 478.16 290.44 477.09 289.45C476.62 289 475.85 288.29 475.14 287.62C474.87 287.37 474.52 287.23 474.15 287.23C469.12 287.23 456.55 287.24 436.44 287.24C437.69 288.14 438.47 288.71 438.78 288.93C439.36 289.35 439.87 289.86 440.29 290.44C440.43 290.64 440.5 290.74 440.72 291.03Z" id="e1qZYdnWwH"></path><path d="M478 290.43C478.49 291.03 478.91 291.7 479.22 292.41C479.46 292.94 479.42 292.85 479.59 293.23C480.12 294.43 480.41 295.72 480.42 297.03C480.6 319.56 481.06 375.88 481.79 466C481.65 467.46 481.57 468.38 481.53 468.75C481.53 468.75 481.46 469.2 481.46 469.2C481.31 469.87 481.15 470.52 481.06 470.91C480.81 471.99 480.39 473.03 479.81 473.99C479.7 474.17 479.85 473.92 479.64 474.27C479.64 474.27 478.82 475.44 478.82 475.44C478.5 475.84 478.43 475.93 478.21 476.2C477.54 477.03 476.78 477.8 475.95 478.5C475.5 478.88 474.37 479.83 472.56 481.35L505.21 481.38C506.07 480.47 506.61 479.89 506.83 479.66C508.3 478.1 509.56 476.37 510.6 474.5C510.77 474.2 510.53 474.63 510.9 473.96C511.26 473.32 511.52 472.63 511.68 471.91C511.85 471.14 511.9 470.91 512.01 470.39C512.35 468.84 512.52 467.25 512.51 465.66C512.34 431.8 511.85 331.88 511.68 297.84C511.68 296.88 511.53 295.93 511.24 295.02C510.98 294.21 510.74 293.47 510.51 292.73C510.14 291.57 509.53 290.5 508.72 289.59C508.3 289.12 507.54 288.27 506.94 287.6C506.74 287.37 506.45 287.24 506.14 287.24C501.95 287.25 491.47 287.25 474.71 287.25C475.81 288.25 476.49 288.87 476.77 289.12C477.14 289.46 477.49 289.82 477.81 290.2C477.99 290.43 477.86 290.27 478 290.43Z" id="bmzJgoQQo"></path><path d="M541.24 453.38C591.58 453.39 623.04 453.4 635.62 453.4C636.83 453.4 637.94 454.05 638.53 455.1C638.74 455.47 638.35 454.78 638.54 455.12C639.23 456.34 639.59 457.71 639.58 459.11C639.58 460.44 639.57 461.79 639.57 462.99C639.56 464.82 639.12 466.63 638.29 468.26C638.2 468.44 638.49 467.87 638.23 468.39C637.98 468.88 637.49 469.18 636.95 469.18C624.2 469.22 592.32 469.33 541.32 469.5L541.24 453.38Z" id="cSzEF78lu"></path><path d="M178.97 419.24C179.99 419.24 180.81 420.07 180.81 421.09C180.81 421.71 180.81 421.72 180.81 422.34C180.81 423.36 179.99 424.18 178.97 424.18C175.41 424.18 166.67 424.18 163.14 424.18C162.05 424.18 161.18 423.31 161.18 422.22C161.18 421.63 161.18 421.76 161.18 421.15C161.18 420.1 162.03 419.24 163.09 419.24C166.64 419.24 175.41 419.24 178.97 419.24Z" id="c13P52BVLf"></path><path d="M507.94 288.74C508.16 288.96 508.29 289.1 508.35 289.15C508.65 289.47 508.93 289.81 509.18 290.17C509.37 290.45 509.39 290.47 509.54 290.69C509.93 291.26 510.25 291.89 510.46 292.55C510.59 292.97 510.7 293.32 510.85 293.76C510.85 293.76 511.36 295.52 511.36 295.52C511.42 295.76 511.47 295.97 511.55 296.3C511.62 296.57 511.66 296.85 511.66 297.13C511.78 319.61 512.07 375.83 512.53 465.79C512.42 467.36 512.35 468.34 512.33 468.74C512.33 468.74 512.29 469 512.29 469C512.16 469.65 511.94 470.78 511.84 471.26C511.72 471.9 511.52 472.53 511.26 473.14C511.16 473.37 511.1 473.51 510.96 473.83C510.82 474.16 510.66 474.47 510.47 474.77C510.12 475.31 509.67 476.01 509.4 476.43C508.97 477.11 508.48 477.75 507.95 478.36C507.67 478.68 506.97 479.48 505.84 480.76C519.21 480.75 527.57 480.74 530.91 480.74C532.18 480.74 533.44 480.44 534.58 479.86C535.12 479.59 534.69 479.81 535.15 479.57C536.56 478.86 537.8 477.85 538.8 476.62C539.27 476.04 538.92 476.47 539.32 475.97C540.52 474.48 541.4 472.76 541.89 470.91C542.05 470.31 541.94 470.74 542.14 470C542.51 468.62 542.69 467.19 542.68 465.76C542.53 443.15 542.17 386.63 541.58 296.19C541.56 295.73 541.54 295.44 541.53 295.33C541.49 294.44 541.26 293.57 540.86 292.77C540.73 292.53 540.82 292.7 540.66 292.38C540.38 291.83 540.02 291.31 539.6 290.86C539.31 290.54 539.07 290.28 538.78 289.97C538.35 289.51 537.84 289.13 537.27 288.85C536.62 288.54 536.37 288.42 535.94 288.2C534.66 287.58 533.26 287.26 531.84 287.26C528.48 287.26 520.07 287.26 506.62 287.27L507.94 288.74Z" id="bWCjLYEIL"></path><path d="M194.19 403.37C194.19 374.26 194.19 356.07 194.19 348.8C194.19 348.27 194.14 347.73 194.04 347.21C193.93 346.61 194.04 347.19 194 346.99C193.66 345.2 192.63 343.62 191.12 342.59C190.9 342.44 191.12 342.59 190.54 342.19C190.2 341.96 189.81 341.84 189.41 341.84C184.57 341.87 172.45 341.92 153.07 342.02C130.52 371.02 116.42 389.14 110.78 396.39C110.24 397.09 109.9 397.92 109.81 398.79C109.76 399.18 109.81 398.75 109.78 399.07C109.66 400.09 110.1 401.09 110.91 401.71C111.23 401.94 111.12 401.86 111.5 402.15C112.15 402.63 112.92 402.89 113.73 402.9C124.46 402.96 151.28 403.12 194.19 403.37Z" id="aMAWm2hZP"></path><path d="M191.19 342.66C191.25 342.7 191.28 342.72 191.3 342.73C192.57 343.65 193.49 344.99 193.89 346.51C193.95 346.73 193.79 346.15 193.93 346.65C194.09 347.29 194.18 347.94 194.18 348.6C194.18 355.78 194.18 373.73 194.19 402.46C195.86 401.12 196.9 400.29 197.32 399.96C198.15 399.3 198.63 398.3 198.64 397.24C198.67 386.69 198.79 356.5 198.82 345.89C198.83 344.95 198.69 344.02 198.42 343.12C198.21 342.42 198.09 342.03 197.91 341.42C197.56 340.27 196.77 339.3 195.72 338.72C195.2 338.43 194.5 338.05 193.78 337.65C193.33 337.4 192.82 337.27 192.3 337.26C185.22 337.23 164.69 337.13 157.59 337.09C157.17 337.09 156.77 337.29 156.51 337.62C156.05 338.2 154.91 339.67 153.08 342.01C172.38 341.93 184.45 341.87 189.27 341.85C189.81 341.85 190.34 342.02 190.77 342.34C190.82 342.38 190.97 342.49 191.19 342.66Z" id="ceroTPN9O"></path><path d="M130.56 373.77C131.51 372.81 133.06 372.81 134.02 373.77C138.47 378.23 150.21 389.96 154.69 394.44C155.58 395.33 155.58 396.77 154.69 397.67C154.29 398.06 154.75 397.6 154.37 397.98C153.46 398.89 151.98 398.89 151.07 397.98C146.6 393.51 134.83 381.74 130.36 377.27C129.45 376.36 129.45 374.88 130.36 373.97C130.75 373.58 130.19 374.14 130.56 373.77Z" id="juSx1uBDG"></path><path d="M138.11 363.76C138.99 362.88 140.43 362.88 141.32 363.76C144.24 366.68 151.48 373.93 154.42 376.87C155.25 377.7 155.25 379.04 154.42 379.86C154.01 380.28 154.28 380.01 153.87 380.42C153.03 381.26 151.66 381.26 150.81 380.42C147.88 377.48 140.6 370.21 137.67 367.27C136.82 366.42 136.82 365.05 137.67 364.2C138.08 363.79 137.71 364.16 138.11 363.76Z" id="a1XLmoUlhh"></path><path d="M153.73 344.02C154.68 343.07 156.23 343.07 157.18 344.02C162.93 349.77 178.52 365.36 184.29 371.13C185.18 372.02 185.18 373.47 184.29 374.36C183.9 374.75 184.36 374.29 183.97 374.67C183.06 375.58 181.59 375.58 180.68 374.67C174.92 368.91 159.29 353.28 153.53 347.52C152.61 346.61 152.61 345.13 153.53 344.22C153.91 343.83 153.36 344.39 153.73 344.02Z" id="ap8g6ND5J"></path><path d="M160.55 368.29C161.5 367.33 163.05 367.33 164.01 368.29C169.75 374.03 185.35 389.63 191.11 395.4C192.01 396.29 192.01 397.73 191.11 398.62C190.72 399.02 191.18 398.55 190.8 398.94C189.89 399.85 188.41 399.85 187.5 398.94C181.74 393.18 166.11 377.55 160.35 371.79C159.44 370.88 159.44 369.4 160.35 368.49C160.74 368.1 160.18 368.66 160.55 368.29Z" id="b5C2y2hJrT"></path><path d="M238.38 342.41C238.69 342.74 238.88 342.94 238.95 343.02C239.66 343.77 240.12 344.71 240.27 345.73C240.31 346 240.31 346.01 240.38 346.47C240.44 346.89 240.47 347.32 240.47 347.75C240.46 354.86 240.44 372.63 240.42 401.07C241.73 400.1 242.55 399.49 242.88 399.25C243.43 398.84 243.75 398.2 243.75 397.52C243.74 386.84 243.71 355.78 243.7 345.08C243.69 344.47 243.6 343.86 243.43 343.28C243.23 342.64 242.99 341.83 242.81 341.24C242.58 340.49 242.12 339.82 241.49 339.35C241.16 339.1 240.63 338.7 240.17 338.35C239.95 338.19 239.69 338.1 239.43 338.1C233.73 338.08 217.02 338.02 211.32 338C211.1 338 210.89 338.11 210.76 338.28C210.44 338.72 209.64 339.82 208.37 341.58C223.27 341.54 232.58 341.51 236.31 341.49C236.59 341.49 236.87 341.57 237.12 341.71C237.29 341.8 237.71 342.04 238.38 342.41Z" id="c1kICttVlN"></path><path d="M210.14 341.57C223.99 341.53 232.64 341.49 236.1 341.48C236.45 341.48 236.8 341.56 237.12 341.72C237.39 341.86 237.49 341.91 237.7 342.02C238.21 342.28 238.67 342.65 239.04 343.09C239.26 343.36 238.93 342.95 239.04 343.09C239.77 343.97 240.22 345.04 240.35 346.17C240.36 346.28 240.39 346.54 240.44 346.97L240.44 401.56C226.37 401.52 217.58 401.49 214.06 401.48C213.02 401.48 212 401.21 211.09 400.7C210.74 400.5 211.37 400.86 211.09 400.7C209.93 400.05 208.98 399.07 208.36 397.89C208.24 397.66 208.54 398.24 208.35 397.87C207.96 397.12 207.75 396.29 207.75 395.45C207.75 388.65 207.73 371.68 207.7 344.51C207.65 343.95 207.62 343.6 207.6 343.46C207.54 342.78 207.86 342.12 208.42 341.74C208.47 341.71 208.24 341.86 208.42 341.74C208.57 341.64 208.74 341.59 208.92 341.58C209.08 341.58 209.49 341.58 210.14 341.57Z" id="b1xyr6Dvu9"></path><path d="M217.98 373.94C218.93 372.99 220.48 372.99 221.43 373.94C224.74 377.25 233.02 385.53 236.35 388.86C237.24 389.75 237.24 391.2 236.35 392.09C235.96 392.48 236.42 392.02 236.04 392.41C235.12 393.32 233.65 393.32 232.74 392.41C229.42 389.08 221.1 380.77 217.78 377.45C216.87 376.53 216.87 375.05 217.78 374.14C218.17 373.76 217.61 374.31 217.98 373.94Z" id="a4HQfZbaJi"></path><path d="M212.29 351.32C213.24 350.36 214.79 350.36 215.74 351.32C220.19 355.77 231.91 367.48 236.38 371.96C237.27 372.85 237.27 374.29 236.38 375.18C235.99 375.57 236.45 375.11 236.06 375.5C235.15 376.41 233.68 376.41 232.77 375.5C228.3 371.03 216.55 359.29 212.09 354.82C211.17 353.91 211.17 352.43 212.09 351.52C212.47 351.13 211.92 351.69 212.29 351.32Z" id="e1kTv7zDwB"></path><path d="M70.36 453.25L70.03 388.9L83.27 388.84L82.67 291.69L92.94 291.65L92.94 281.77L98.17 281.75L98.17 277.73L113.4 277.79L113.43 282.34L125.17 282.34L125.06 267.3L132.17 267.2L132.27 245.15L47.8 245.51L47.64 359.3L14.35 359.16L14.69 453.29L70.36 453.25Z" id="eVTLJAInA"></path><path d="M94.32 454.06L93.52 453.15C93.18 453.04 92.96 452.96 92.88 452.93C92.18 452.69 91.53 452.36 90.93 451.94C91.53 452.36 91.38 452.26 90.49 451.63C90.46 451.61 89.33 450.87 89.02 449.99C88.83 449.46 88.78 448.79 88.84 448.3C88.87 448.1 88.87 447.16 88.86 447.04C88.83 446.54 88.81 445.8 88.81 444.83C88.77 434.87 88.74 428.65 88.73 426.16C88.72 425.07 89.28 424.06 90.2 423.49C90.65 423.21 91.02 422.97 91.59 422.61C92.15 422.26 92.77 422.02 93.41 421.9C93.7 421.84 94.43 421.7 95.59 421.48C95.55 416.83 95.53 413.92 95.52 412.76C95.5 410.01 96.46 407.36 98.25 405.27C98.36 405.15 98.63 404.82 99.08 404.31C129.33 364.54 148.24 339.68 155.81 329.74C156.51 328.82 157.35 328.01 158.3 327.35C158.31 327.34 158.32 327.33 158.35 327.31L158.46 291.48L148.6 291.47L148.72 281.46L141.14 281.46L141.14 267.36L125.07 267.32L125.18 282.34L113.42 282.33L113.39 277.8L98.17 277.73L98.17 281.75L92.94 281.76L92.93 291.64L82.69 291.68L83.04 388.87L69.8 388.97L70.22 454.15L94.32 454.06Z" id="c37GtLMxFK"></path><path d="M272.23 461.78L272.19 430.94" id="b1QVzgFOqE"></path><path d="M275.54 461.88L275.68 430.94" id="ej7mlrUNo"></path><path d="M277.96 461.88L278.13 430.94" id="b4W11dKd6d"></path><path d="M281.25 461.88L281.25 430.94" id="f5RinjznZ"></path><path d="M284.66 461.88L284.66 430.94" id="cM3R2VjT1"></path><path d="M287.34 461.88L287.5 430.94" id="beOHxigM4"></path><path d="M290.63 461.88L290.58 431.03" id="eCFiZviJV"></path><path d="M293.68 461.88L293.82 430.94" id="ak4IzfhCl"></path><path d="M296.63 461.88L296.63 430.94" id="aDeZ4bah5"></path><path d="M299.84 461.88L300 430.94" id="jsoLXXWUK"></path><path d="M302.96 461.88L303.13 430.94" id="cjMt2LnRF"></path><path d="M305.5 461.88L305.5 430.94" id="aI5dFvS"></path><path d="M141.13 267.36L141.13 281.46L148.71 281.47L148.64 291.56L158.42 291.54L158.42 327.11C158.61 326.95 158.73 326.86 158.78 326.82C160.73 325.29 162.81 323.93 165 322.75C165 322.75 165 322.75 165 322.75L165 241.25L204.24 241.25L204.47 321.25L218.75 321.25L218.75 284.59L226.25 284.59L226.25 280L208.75 280L208.75 212.82L198.75 212.82L198.75 203.75L192.5 203.75L192.5 190L157.5 190L157.5 203.75L145 203.75L145 212.72L138.75 212.72L138.75 267.35L141.13 267.36Z" id="c1NG7clAo8"></path><path d="M166.69 322.1C167.05 321.98 167.27 321.9 167.36 321.87C168.39 321.53 169.45 321.35 170.53 321.32C170.59 321.32 170.74 321.32 170.99 321.31L204.48 321.31L204.25 241.25L165 241.25L165 322.78L166.69 322.1Z" id="iCA3JuHiq"></path><path d="M257.76 321.33C257.78 310.63 257.78 303.94 257.79 301.27C257.79 299.57 257.97 297.87 258.32 296.21C258.4 295.82 258.39 295.89 258.53 295.19C258.67 294.56 258.9 293.96 259.21 293.4C259.55 292.8 259.84 292.3 260.11 291.82C260.63 290.9 261.43 290.16 262.38 289.71C263.04 289.4 264.31 288.8 265.16 288.4C265.5 288.24 265.85 288.12 266.2 288.03C266.74 287.9 267.76 287.65 268.28 287.52C268.66 287.43 269.06 287.38 269.46 287.37C270.62 287.36 273.52 287.33 278.16 287.28L278.16 284.34L272.54 284.34L272.54 279.34L261.91 279.34L261.91 268.81L232.54 268.71L232.54 278.71L226.29 278.71L226.35 284.53L218.79 284.57L218.79 321.21" id="b7T9TYLDe"></path><path d="M232.57 278.69L232.54 268.75L261.88 268.82L261.88 279.38L272.5 279.38L272.5 154.09L227.5 127.5L227.54 278.71L232.57 278.69Z" id="cuIkyxl50"></path><path d="M317.5 287.19L317.5 277.23L326.25 277.23L326.25 266.25L332.5 266.25L332.5 262.5L345 262.5L345 266.25L357.5 266.25L357.5 250.84L371.25 250.92L371.25 223.75L360 223.75L360 210L352.5 210L352.5 203.75L337.5 203.75L337.5 210L321.25 210L321.25 190L302.5 190L302.5 211.25L293.75 211.25L293.75 223.75L282.5 223.75L282.5 287.26L317.5 287.19Z" id="d1lqVKKiPg"></path><path d="M317.49 287.21L317.49 277.27L326.24 277.26L326.24 266.29L332.49 266.29L332.49 262.54L344.99 262.54L344.99 266.29L357.49 266.29L357.49 250.83L373.75 250.94L373.74 266.29L381.24 266.29L381.24 277.54L389.99 277.54L389.99 287.23L317.49 287.21Z" id="a2AhVWK7hI"></path><path d="M450 287.21L450 280L447.5 280L447.5 212.5L437.5 212.5L437.5 203.75L431.25 203.75L431.25 190L396.25 190L396.25 203.75L383.75 203.75L383.75 213.75L378.01 213.75L378.13 266.25L381.25 266.25L381.25 277.5L390 277.5L390 287.12L397.96 287.08L450 287.21Z" id="a15NF2acaS"></path><path d="M435 287.16L435 222.5L397.5 222.5L397.5 287.03L435 287.16Z" id="d31NSquMzW"></path><path d="M450 287.19L507.5 287.24L507.5 268.75L502.5 268.75L502.5 262.5L491.25 262.5L491.25 251.87L464.06 251.79L464.06 262.5L458.68 262.5L458.65 270L450 270L450 280L450 287.19Z" id="b2UR9eyFzi"></path><path d="M491.25 251.82L491.25 262.5L502.5 262.5L502.5 268.75L507.5 268.75L507.5 287.21L512.5 287.21L512.5 155L465 155L465.63 251.78L491.25 251.82Z" id="a10j1uMhcW"></path><path d="M542.69 453.37L610 453.39L610 382.5L582.5 382.5L582.5 295L541.49 295L542.69 453.37Z" id="d1Kgsj0SDL"></path><path d="M533.63 287.47C534.57 287.63 535.48 287.92 536.33 288.33C536.55 288.43 536.08 288.21 536.33 288.33C537.06 288.67 537.73 289.1 538.35 289.62C538.52 289.76 538.31 289.58 538.53 289.77C538.99 290.16 539.4 290.6 539.76 291.08C540 291.39 540.12 291.56 540.35 291.86C540.74 292.39 541.03 292.98 541.21 293.61C541.26 293.79 541.39 294.26 541.6 295L582.5 295L582.5 382.5L610 382.5L610 453.02L625 453.02L625 360.19L608.75 360.19L608.75 222.5L597.5 222.5L597.5 208.75L591.25 208.75L591.25 203.75L575 203.75L575 208.75L559.38 208.75L559.38 190.63L540.31 190.63L540.31 209.38L531.88 209.38L531.88 223.13L520.63 223.13L520.63 287.22C526.68 287.24 530.46 287.26 531.97 287.26C532.32 287.26 532.67 287.3 533.02 287.36C533.43 287.43 533.41 287.43 533.63 287.47Z" id="b42hqzoYaM"></path></defs><g><g><g><g><use xlink:href="#a1jnhST1J" opacity="1" fill-opacity="0" stroke="#000000" stroke-width="1" stroke-opacity="1"></use></g></g><g><use xlink:href="#b39xeoGH3" opacity="1" fill="#438d98" fill-opacity="1"></use><g><use xlink:href="#b39xeoGH3" opacity="1" fill-opacity="0" stroke="#000000" stroke-width="1" stroke-opacity="1"></use></g></g><g><use xlink:href="#b4kh81rTWO" opacity="1" fill="#438d98" fill-opacity="1"></use><g><use xlink:href="#b4kh81rTWO" opacity="1" fill-opacity="0" stroke="#000000" stroke-width="1" stroke-opacity="1"></use></g></g><g><use xlink:href="#d68brkutV7" opacity="1" fill="#032b46" fill-opacity="1"></use><g><use xlink:href="#d68brkutV7" opacity="1" fill-opacity="0" stroke="#000000" stroke-width="1" stroke-opacity="1"></use></g></g><g><use xlink:href="#d2io22mo9" opacity="1" fill="#8b8380" fill-opacity="1"></use><g><use xlink:href="#d2io22mo9" opacity="1" fill-opacity="0" stroke="#000000" stroke-width="1" stroke-opacity="1"></use></g></g><g><use xlink:href="#bOrJRHyl" opacity="1" fill="#3b393d" fill-opacity="1"></use><g><use xlink:href="#bOrJRHyl" opacity="1" fill-opacity="0" stroke="#000000" stroke-width="1" stroke-opacity="1"></use></g></g><g><use xlink:href="#a6oOYk9FO" opacity="1" fill="#010001" fill-opacity="1"></use><g><use xlink:href="#a6oOYk9FO" opacity="1" fill-opacity="0" stroke="#000000" stroke-width="1" stroke-opacity="1"></use></g></g><g><use xlink:href="#a37nsE5XlL" opacity="1" fill="#14263b" fill-opacity="1"></use><g><use xlink:href="#a37nsE5XlL" opacity="1" fill-opacity="0" stroke="#000000" stroke-width="1" stroke-opacity="1"></use></g></g><g><use xlink:href="#bD7UX6wwU" opacity="1" fill="#010001" fill-opacity="1"></use><g><use xlink:href="#bD7UX6wwU" opacity="1" fill-opacity="0" stroke="#000000" stroke-width="1" stroke-opacity="1"></use></g></g><g><use xlink:href="#a3bSgvMlJ" opacity="1" fill="#032b46" fill-opacity="1"></use><g><use xlink:href="#a3bSgvMlJ" opacity="1" fill-opacity="0" stroke="#000000" stroke-width="1" stroke-opacity="1"></use></g></g><g><use xlink:href="#c3cjhvshK" opacity="1" fill="#8b8380" fill-opacity="1"></use><g><use xlink:href="#c3cjhvshK" opacity="1" fill-opacity="0" stroke="#000000" stroke-width="1" stroke-opacity="1"></use></g></g><g><use xlink:href="#aaDEtGr7L" opacity="1" fill="#3b393d" fill-opacity="1"></use><g><use xlink:href="#aaDEtGr7L" opacity="1" fill-opacity="0" stroke="#000000" stroke-width="1" stroke-opacity="1"></use></g></g><g><use xlink:href="#b12lwsg8Bu" opacity="1" fill="#010001" fill-opacity="1"></use><g><use xlink:href="#b12lwsg8Bu" opacity="1" fill-opacity="0" stroke="#000000" stroke-width="1" stroke-opacity="1"></use></g></g><g><use xlink:href="#dB8wrwRzD" opacity="1" fill="#14263b" fill-opacity="1"></use><g><use xlink:href="#dB8wrwRzD" opacity="1" fill-opacity="0" stroke="#000000" stroke-width="1" stroke-opacity="1"></use></g></g><g><use xlink:href="#a2m7rtyv7n" opacity="1" fill="#1d3c4b" fill-opacity="1"></use><g><use xlink:href="#a2m7rtyv7n" opacity="1" fill-opacity="0" stroke="#000000" stroke-width="1" stroke-opacity="1"></use></g></g><g><use xlink:href="#cvAopgfjX" opacity="1" fill="#010001" fill-opacity="1"></use><g><use xlink:href="#cvAopgfjX" opacity="1" fill-opacity="0" stroke="#000000" stroke-width="1" stroke-opacity="1"></use></g></g><g><use xlink:href="#becQyeZOM" opacity="1" fill="#e7e8e9" fill-opacity="1"></use><g><use xlink:href="#becQyeZOM" opacity="1" fill-opacity="0" stroke="#000000" stroke-width="1" stroke-opacity="1"></use></g></g><g><use xlink:href="#b2i7QXMKhN" opacity="1" fill="#102935" fill-opacity="1"></use><g><use xlink:href="#b2i7QXMKhN" opacity="1" fill-opacity="0" stroke="#000000" stroke-width="1" stroke-opacity="1"></use></g></g><g><use xlink:href="#d1ibHDC024" opacity="1" fill="#e7e8e9" fill-opacity="1"></use><g><use xlink:href="#d1ibHDC024" opacity="1" fill-opacity="0" stroke="#000000" stroke-width="1" stroke-opacity="1"></use></g></g><g><use xlink:href="#abeQr3miv" opacity="1" fill="#d9585c" fill-opacity="1"></use><g><use xlink:href="#abeQr3miv" opacity="1" fill-opacity="0" stroke="#000000" stroke-width="1" stroke-opacity="1"></use></g></g><g><use xlink:href="#duuDmVYJ4" opacity="1" fill="#c55056" fill-opacity="1"></use><g><use xlink:href="#duuDmVYJ4" opacity="1" fill-opacity="0" stroke="#000000" stroke-width="1" stroke-opacity="1"></use></g></g><g><g><use xlink:href="#hER45EzqO" opacity="1" fill-opacity="0" stroke="#000000" stroke-width="1" stroke-opacity="1"></use></g></g><g><use xlink:href="#b4hpyoJu2L" opacity="1" fill="#caa37d" fill-opacity="1"></use><g><use xlink:href="#b4hpyoJu2L" opacity="1" fill-opacity="0" stroke="#000000" stroke-width="1" stroke-opacity="1"></use></g></g><g><use xlink:href="#eaZQDiqhE" opacity="1" fill="#dab792" fill-opacity="1"></use><g><use xlink:href="#eaZQDiqhE" opacity="1" fill-opacity="0" stroke="#000000" stroke-width="1" stroke-opacity="1"></use></g></g><g><use xlink:href="#a17TfhQ1Bl" opacity="1" fill="#dab792" fill-opacity="1"></use><g><use xlink:href="#a17TfhQ1Bl" opacity="1" fill-opacity="0" stroke="#000000" stroke-width="1" stroke-opacity="1"></use></g></g><g><use xlink:href="#e1qZYdnWwH" opacity="1" fill="#cfa989" fill-opacity="1"></use><g><use xlink:href="#e1qZYdnWwH" opacity="1" fill-opacity="0" stroke="#000000" stroke-width="1" stroke-opacity="1"></use></g></g><g><use xlink:href="#bmzJgoQQo" opacity="1" fill="#be9c7f" fill-opacity="1"></use><g><use xlink:href="#bmzJgoQQo" opacity="1" fill-opacity="0" stroke="#000000" stroke-width="1" stroke-opacity="1"></use></g></g><g><use xlink:href="#cSzEF78lu" opacity="1" fill="#438d98" fill-opacity="1"></use><g><use xlink:href="#cSzEF78lu" opacity="1" fill-opacity="0" stroke="#000000" stroke-width="1" stroke-opacity="1"></use></g></g><g><g><use xlink:href="#c13P52BVLf" opacity="1" fill-opacity="0" stroke="#000000" stroke-width="1" stroke-opacity="1"></use></g></g><g><use xlink:href="#bWCjLYEIL" opacity="1" fill="#cfa989" fill-opacity="1"></use><g><use xlink:href="#bWCjLYEIL" opacity="1" fill-opacity="0" stroke="#000000" stroke-width="1" stroke-opacity="1"></use></g></g><g><use xlink:href="#aMAWm2hZP" opacity="1" fill="#b5e1f5" fill-opacity="1"></use><g><use xlink:href="#aMAWm2hZP" opacity="1" fill-opacity="0" stroke="#000000" stroke-width="1" stroke-opacity="1"></use></g></g><g><use xlink:href="#ceroTPN9O" opacity="1" fill="#75a6bc" fill-opacity="1"></use><g><use xlink:href="#ceroTPN9O" opacity="1" fill-opacity="0" stroke="#000000" stroke-width="1" stroke-opacity="1"></use></g></g><g><use xlink:href="#juSx1uBDG" opacity="1" fill="#e7f7ff" fill-opacity="0.75"></use><g><use xlink:href="#juSx1uBDG" opacity="1" fill-opacity="0" stroke="#000000" stroke-width="1" stroke-opacity="1"></use></g></g><g><use xlink:href="#a1XLmoUlhh" opacity="1" fill="#e7f7ff" fill-opacity="0.75"></use><g><use xlink:href="#a1XLmoUlhh" opacity="1" fill-opacity="0" stroke="#000000" stroke-width="1" stroke-opacity="1"></use></g></g><g><use xlink:href="#ap8g6ND5J" opacity="1" fill="#e7f7ff" fill-opacity="0.75"></use><g><use xlink:href="#ap8g6ND5J" opacity="1" fill-opacity="0" stroke="#000000" stroke-width="1" stroke-opacity="1"></use></g></g><g><use xlink:href="#b5C2y2hJrT" opacity="1" fill="#e7f7ff" fill-opacity="0.75"></use><g><use xlink:href="#b5C2y2hJrT" opacity="1" fill-opacity="0" stroke="#000000" stroke-width="1" stroke-opacity="1"></use></g></g><g><use xlink:href="#c1kICttVlN" opacity="1" fill="#75a6bc" fill-opacity="0.75"></use><g><use xlink:href="#c1kICttVlN" opacity="1" fill-opacity="0" stroke="#000000" stroke-width="1" stroke-opacity="1"></use></g></g><g><use xlink:href="#b1xyr6Dvu9" opacity="1" fill="#b5e1f5" fill-opacity="0.75"></use><g><use xlink:href="#b1xyr6Dvu9" opacity="1" fill-opacity="0" stroke="#000000" stroke-width="1" stroke-opacity="1"></use></g></g><g><use xlink:href="#a4HQfZbaJi" opacity="1" fill="#e7f7ff" fill-opacity="0.75"></use><g><use xlink:href="#a4HQfZbaJi" opacity="1" fill-opacity="0" stroke="#000000" stroke-width="1" stroke-opacity="1"></use></g></g><g><use xlink:href="#e1kTv7zDwB" opacity="1" fill="#e7f7ff" fill-opacity="1"></use><g><use xlink:href="#e1kTv7zDwB" opacity="1" fill-opacity="0" stroke="#000000" stroke-width="1" stroke-opacity="1"></use></g></g><g><use xlink:href="#eVTLJAInA" opacity="1" fill="#9cd0d7" fill-opacity="1"></use><g><use xlink:href="#eVTLJAInA" opacity="1" fill-opacity="0" stroke="#000000" stroke-width="1" stroke-opacity="1"></use></g></g><g><use xlink:href="#c37GtLMxFK" opacity="1" fill="#60b6c6" fill-opacity="1"></use><g><use xlink:href="#c37GtLMxFK" opacity="1" fill-opacity="0" stroke="#000000" stroke-width="1" stroke-opacity="1"></use></g></g><g><g><use xlink:href="#b1QVzgFOqE" opacity="1" fill-opacity="0" stroke="#000000" stroke-width="3" stroke-opacity="1"></use></g></g><g><g><use xlink:href="#ej7mlrUNo" opacity="1" fill-opacity="0" stroke="#000000" stroke-width="1" stroke-opacity="1"></use></g></g><g><g><use xlink:href="#b4W11dKd6d" opacity="1" fill-opacity="0" stroke="#000000" stroke-width="1" stroke-opacity="1"></use></g></g><g><g><use xlink:href="#f5RinjznZ" opacity="1" fill-opacity="0" stroke="#000000" stroke-width="2" stroke-opacity="1"></use></g></g><g><g><use xlink:href="#cM3R2VjT1" opacity="1" fill-opacity="0" stroke="#000000" stroke-width="2" stroke-opacity="1"></use></g></g><g><g><use xlink:href="#beOHxigM4" opacity="1" fill-opacity="0" stroke="#000000" stroke-width="1" stroke-opacity="1"></use></g></g><g><g><use xlink:href="#eCFiZviJV" opacity="1" fill-opacity="0" stroke="#000000" stroke-width="3" stroke-opacity="1"></use></g></g><g><g><use xlink:href="#ak4IzfhCl" opacity="1" fill-opacity="0" stroke="#000000" stroke-width="1" stroke-opacity="1"></use></g></g><g><g><use xlink:href="#aDeZ4bah5" opacity="1" fill-opacity="0" stroke="#000000" stroke-width="2" stroke-opacity="1"></use></g></g><g><g><use xlink:href="#jsoLXXWUK" opacity="1" fill-opacity="0" stroke="#000000" stroke-width="1" stroke-opacity="1"></use></g></g><g><g><use xlink:href="#cjMt2LnRF" opacity="1" fill-opacity="0" stroke="#000000" stroke-width="1" stroke-opacity="1"></use></g></g><g><g><use xlink:href="#aI5dFvS" opacity="1" fill-opacity="0" stroke="#000000" stroke-width="2" stroke-opacity="1"></use></g></g><g><use xlink:href="#c1NG7clAo8" opacity="1" fill="#9cd0d7" fill-opacity="1"></use><g><use xlink:href="#c1NG7clAo8" opacity="1" fill-opacity="0" stroke="#000000" stroke-width="1" stroke-opacity="1"></use></g></g><g><use xlink:href="#iCA3JuHiq" opacity="1" fill="#60b6c6" fill-opacity="1"></use><g><use xlink:href="#iCA3JuHiq" opacity="1" fill-opacity="0" stroke="#000000" stroke-width="1" stroke-opacity="1"></use></g></g><g><use xlink:href="#b7T9TYLDe" opacity="1" fill="#60b6c6" fill-opacity="1"></use><g><use xlink:href="#b7T9TYLDe" opacity="1" fill-opacity="0" stroke="#000000" stroke-width="1" stroke-opacity="1"></use></g></g><g><use xlink:href="#cuIkyxl50" opacity="1" fill="#9cd0d7" fill-opacity="1"></use><g><use xlink:href="#cuIkyxl50" opacity="1" fill-opacity="0" stroke="#000000" stroke-width="1" stroke-opacity="1"></use></g></g><g><use xlink:href="#d1lqVKKiPg" opacity="1" fill="#9cd0d7" fill-opacity="1"></use><g><use xlink:href="#d1lqVKKiPg" opacity="1" fill-opacity="0" stroke="#000000" stroke-width="1" stroke-opacity="1"></use></g></g><g><use xlink:href="#a2AhVWK7hI" opacity="1" fill="#60b6c6" fill-opacity="1"></use><g><use xlink:href="#a2AhVWK7hI" opacity="1" fill-opacity="0" stroke="#000000" stroke-width="1" stroke-opacity="1"></use></g></g><g><use xlink:href="#a15NF2acaS" opacity="1" fill="#9cd0d7" fill-opacity="1"></use><g><use xlink:href="#a15NF2acaS" opacity="1" fill-opacity="0" stroke="#000000" stroke-width="1" stroke-opacity="1"></use></g></g><g><use xlink:href="#d31NSquMzW" opacity="1" fill="#60b6c6" fill-opacity="1"></use><g><use xlink:href="#d31NSquMzW" opacity="1" fill-opacity="0" stroke="#000000" stroke-width="1" stroke-opacity="1"></use></g></g><g><use xlink:href="#b2UR9eyFzi" opacity="1" fill="#60b6c6" fill-opacity="1"></use><g><use xlink:href="#b2UR9eyFzi" opacity="1" fill-opacity="0" stroke="#000000" stroke-width="1" stroke-opacity="1"></use></g></g><g><use xlink:href="#a10j1uMhcW" opacity="1" fill="#9cd0d7" fill-opacity="1"></use><g><use xlink:href="#a10j1uMhcW" opacity="1" fill-opacity="0" stroke="#000000" stroke-width="1" stroke-opacity="1"></use></g></g><g><use xlink:href="#d1Kgsj0SDL" opacity="1" fill="#60b6c6" fill-opacity="1"></use><g><use xlink:href="#d1Kgsj0SDL" opacity="1" fill-opacity="0" stroke="#000000" stroke-width="1" stroke-opacity="1"></use></g></g><g><use xlink:href="#b42hqzoYaM" opacity="1" fill="#9cd0d7" fill-opacity="1"></use><g><use xlink:href="#b42hqzoYaM" opacity="1" fill-opacity="0" stroke="#000000" stroke-width="1" stroke-opacity="1"></use></g></g></g></g></svg>